<svg xmlns="http://www.w3.org/2000/svg" width="634.667" height="984" viewBox="0 0 476 738" preserveAspectRatio="xMidYMid meet" xmlns:v="https://vecta.io/nano"><path d="M145.159 13.892c-30.112 1.229-66.37 4.302-104.625 8.604l-22.738 2.612.922 15.363 14.749 353.358 14.442 338.609c.307.307 11.062.154 23.66-.461l23.199-1.075v-6.76c0-8.757-6.76-216.163-10.908-333.079-2.305-67.445-2.612-90.798-1.383-91.566 4.302-2.765 58.688-8.911 94.485-10.754 62.683-3.38 130.128 3.841 237.825 25.196 23.813 4.609 33.185 5.992 32.724 4.609-.461-1.075-21.355-36.411-46.397-78.353-37.333-62.836-45.168-76.817-43.325-78.046 5.07-3.841 105.7-92.027 105.393-92.488-1.383-1.229-83.116-26.579-106.315-32.878-53.618-14.595-88.647-20.587-135.505-23.045-31.649-1.69-33.953-1.69-76.202.154z" fill="#0085ca"/></svg>