<?xml version="1.0" encoding="UTF-8" standalone="no"?>
<svg
   xmlns:dc="http://purl.org/dc/elements/1.1/"
   xmlns:cc="http://creativecommons.org/ns#"
   xmlns:rdf="http://www.w3.org/1999/02/22-rdf-syntax-ns#"
   xmlns:svg="http://www.w3.org/2000/svg"
   xmlns="http://www.w3.org/2000/svg"
   xmlns:sodipodi="http://sodipodi.sourceforge.net/DTD/sodipodi-0.dtd"
   xmlns:inkscape="http://www.inkscape.org/namespaces/inkscape"
   height="256"
   style="clip-rule:evenodd;fill-rule:evenodd;stroke-linejoin:round;stroke-miterlimit:2"
   version="1.1"
   viewBox="0 0 256 256"
   width="256"
   xml:space="preserve"
   id="svg4"
   sodipodi:docname="instagram.svg"
   inkscape:version="1.0.2-2 (e86c870879, 2021-01-15)"><metadata
     id="metadata10"><rdf:RDF><cc:Work
         rdf:about=""><dc:format>image/svg+xml</dc:format><dc:type
           rdf:resource="http://purl.org/dc/dcmitype/StillImage" /><dc:title></dc:title></cc:Work></rdf:RDF></metadata><defs
     id="defs8" /><sodipodi:namedview
     pagecolor="#ffffff"
     bordercolor="#666666"
     borderopacity="1"
     objecttolerance="10"
     gridtolerance="10"
     guidetolerance="10"
     inkscape:pageopacity="0"
     inkscape:pageshadow="2"
     inkscape:window-width="1920"
     inkscape:window-height="1017"
     id="namedview6"
     showgrid="false"
     inkscape:zoom="1.6162671"
     inkscape:cx="26.663176"
     inkscape:cy="202.51045"
     inkscape:window-x="-8"
     inkscape:window-y="-8"
     inkscape:window-maximized="1"
     inkscape:current-layer="svg4" /><path
     d="m 224.27868,1.2374193 c 17.08578,0 30.95682,13.8715307 30.95682,30.9568227 V 223.65997 c 0,17.08529 -13.87153,30.95682 -30.95682,30.95682 H 32.812951 c -17.085291,0 -30.9568221,-13.87153 -30.9568221,-30.95682 V 32.194242 C 1.8561289,15.10895 15.727165,1.2374193 32.812951,1.2374193 Z M 128.54582,41.322828 c -23.52024,0 -26.46973,0.09947 -35.706701,0.52111 -9.218159,0.420649 -15.513548,1.884509 -21.02257,4.025862 -5.695098,2.21311 -10.524647,5.174481 -15.33935,9.988689 -4.814702,4.814704 -7.776074,9.644748 -9.989185,15.339351 -2.140857,5.509021 -3.604717,11.80441 -4.025862,21.02257 -0.421143,9.23697 -0.520615,12.18646 -0.520615,35.7067 0,23.52023 0.09947,26.46973 0.520615,35.70669 0.421145,9.21817 1.885005,15.51356 4.025862,21.02258 2.213111,5.6946 5.174483,10.52464 9.989185,15.33934 4.814703,4.81471 9.644252,7.77608 15.33935,9.98919 5.509022,2.14086 11.804411,3.60472 21.02257,4.02537 9.236971,0.42163 12.186461,0.52111 35.706701,0.52111 23.52023,0 26.46973,-0.0995 35.70669,-0.52111 9.21816,-0.42065 15.51355,-1.88451 21.02258,-4.02537 5.6946,-2.21311 10.52464,-5.17448 15.33934,-9.98919 4.8147,-4.8147 7.77608,-9.64474 9.98918,-15.33934 2.14086,-5.50902 3.60473,-11.80441 4.02538,-21.02258 0.42163,-9.23696 0.52111,-12.18646 0.52111,-35.70669 0,-23.52024 -0.0995,-26.46973 -0.52111,-35.7067 -0.42065,-9.21816 -1.88452,-15.513549 -4.02538,-21.02257 -2.2131,-5.694603 -5.17448,-10.524647 -9.98918,-15.339351 -4.8147,-4.814208 -9.64474,-7.775579 -15.33934,-9.988689 -5.50903,-2.141353 -11.80442,-3.605213 -21.02258,-4.025862 -9.23696,-0.421639 -12.18646,-0.52111 -35.70669,-0.52111 z m 0,15.604606 c 23.12433,0 25.86349,0.08809 34.99555,0.504779 8.44366,0.385513 13.02924,1.79642 16.08118,2.981661 4.04268,1.571249 6.92734,3.448335 9.958,6.478496 3.03065,3.030654 4.90724,5.915814 6.4785,9.958007 1.18573,3.051934 2.59664,7.637508 2.98166,16.081178 0.41669,9.132055 0.50527,11.871215 0.50527,34.995555 0,23.12433 -0.0885,25.86349 -0.50527,34.99555 -0.38502,8.44367 -1.79593,13.02924 -2.98166,16.08118 -1.57126,4.04268 -3.44785,6.92735 -6.4785,9.958 -3.03066,3.03065 -5.91532,4.90724 -9.958,6.4785 -3.05194,1.18574 -7.63752,2.59664 -16.08118,2.98166 -9.13057,0.41669 -11.86974,0.50527 -34.99555,0.50527 -23.12582,0 -25.86449,-0.0885 -34.995556,-0.50527 -8.44367,-0.38502 -13.029243,-1.79592 -16.081178,-2.98166 -4.042688,-1.57126 -6.927352,-3.44785 -9.958007,-6.4785 -3.030654,-3.03065 -4.90774,-5.91532 -6.478495,-9.958 -1.185736,-3.05194 -2.596644,-7.63751 -2.982156,-16.08118 -0.41669,-9.13206 -0.504779,-11.87122 -0.504779,-34.99555 0,-23.12434 0.08809,-25.8635 0.504779,-34.995555 0.385512,-8.44367 1.79642,-13.029244 2.982156,-16.081178 1.570755,-4.042193 3.447841,-6.927353 6.478495,-9.958007 3.030655,-3.030161 5.915319,-4.907247 9.958007,-6.478496 3.051935,-1.185241 7.637508,-2.596148 16.081178,-2.981661 9.132056,-0.41669 11.871216,-0.504779 34.995556,-0.504779 z m 0,26.527137 c -24.56147,0 -44.472539,19.911069 -44.472539,44.472539 0,24.56146 19.911069,44.47253 44.472539,44.47253 24.56146,0 44.47253,-19.91107 44.47253,-44.47253 0,-24.56147 -19.91107,-44.472539 -44.47253,-44.472539 z m 0,73.340469 c -15.9436,0 -28.86793,-12.92434 -28.86793,-28.86793 0,-15.9436 12.92433,-28.867932 28.86793,-28.867932 15.94359,0 28.86793,12.924332 28.86793,28.867932 0,15.94359 -12.92434,28.86793 -28.86793,28.86793 z m 56.62237,-75.097298 c 0,5.739637 -4.65338,10.392019 -10.39301,10.392019 -5.73914,0 -10.39202,-4.652382 -10.39202,-10.392019 0,-5.739636 4.65288,-10.392513 10.39202,-10.392513 5.73963,0 10.39301,4.652877 10.39301,10.392513 z"
     id="path2"
     style="fill:#0085ca;fill-opacity:1;stroke-width:0.494881" /></svg>
