<?xml version="1.0" encoding="UTF-8" standalone="no"?>
<svg
   xmlns:dc="http://purl.org/dc/elements/1.1/"
   xmlns:cc="http://creativecommons.org/ns#"
   xmlns:rdf="http://www.w3.org/1999/02/22-rdf-syntax-ns#"
   xmlns:svg="http://www.w3.org/2000/svg"
   xmlns="http://www.w3.org/2000/svg"
   xmlns:sodipodi="http://sodipodi.sourceforge.net/DTD/sodipodi-0.dtd"
   xmlns:inkscape="http://www.inkscape.org/namespaces/inkscape"
   height="256"
   style="clip-rule:evenodd;fill-rule:evenodd;stroke-linejoin:round;stroke-miterlimit:2"
   version="1.1"
   viewBox="0 0 256 256"
   width="256"
   xml:space="preserve"
   id="svg4"
   sodipodi:docname="facebook.svg"
   inkscape:version="1.0.2-2 (e86c870879, 2021-01-15)"><metadata
     id="metadata10"><rdf:RDF><cc:Work
         rdf:about=""><dc:format>image/svg+xml</dc:format><dc:type
           rdf:resource="http://purl.org/dc/dcmitype/StillImage" /><dc:title></dc:title></cc:Work></rdf:RDF></metadata><defs
     id="defs8" /><sodipodi:namedview
     pagecolor="#ffffff"
     bordercolor="#666666"
     borderopacity="1"
     objecttolerance="10"
     gridtolerance="10"
     guidetolerance="10"
     inkscape:pageopacity="0"
     inkscape:pageshadow="2"
     inkscape:window-width="1920"
     inkscape:window-height="1017"
     id="namedview6"
     showgrid="false"
     inkscape:zoom="2.2857468"
     inkscape:cx="133.1909"
     inkscape:cy="155.41293"
     inkscape:window-x="-8"
     inkscape:window-y="-8"
     inkscape:window-maximized="1"
     inkscape:current-layer="svg4" /><path
     d="m 224.2247,0.87498755 c 17.15701,0 31.08586,13.92935445 31.08586,31.08586545 V 224.2247 c 0,17.15651 -13.92935,31.08586 -31.08586,31.08586 h -52.90868 v -95.86804 h 33.0965 l 6.29728,-41.05805 H 171.31602 V 91.739796 c 0,-11.232436 5.50266,-22.181613 23.14767,-22.181613 h 17.91088 V 34.603107 c 0,0 -16.25506,-2.773944 -31.7955,-2.773944 -32.44452,0 -53.65013,19.663597 -53.65013,55.262214 V 118.38447 H 90.864181 v 41.05805 h 36.064759 v 95.86804 H 31.960853 c -17.156511,0 -31.08586545,-13.92935 -31.08586545,-31.08586 V 31.960853 c 0,-17.156511 13.92885745,-31.08586545 31.08586545,-31.08586545 z"
     style="fill:#0085ca;fill-opacity:1;stroke-width:0.496944"
     id="path2" /></svg>
