<?xml version="1.0" encoding="UTF-8" standalone="no"?>
<svg
   xmlns:dc="http://purl.org/dc/elements/1.1/"
   xmlns:cc="http://creativecommons.org/ns#"
   xmlns:rdf="http://www.w3.org/1999/02/22-rdf-syntax-ns#"
   xmlns:svg="http://www.w3.org/2000/svg"
   xmlns="http://www.w3.org/2000/svg"
   xmlns:sodipodi="http://sodipodi.sourceforge.net/DTD/sodipodi-0.dtd"
   xmlns:inkscape="http://www.inkscape.org/namespaces/inkscape"
   height="256"
   version="1.1"
   viewBox="0 0 256 256"
   width="256"
   xml:space="preserve"
   id="svg10"
   sodipodi:docname="youtube.svg"
   inkscape:version="1.0.2-2 (e86c870879, 2021-01-15)"><metadata
     id="metadata16"><rdf:RDF><cc:Work
         rdf:about=""><dc:format>image/svg+xml</dc:format><dc:type
           rdf:resource="http://purl.org/dc/dcmitype/StillImage" /><dc:title></dc:title></cc:Work></rdf:RDF></metadata><defs
     id="defs14" /><sodipodi:namedview
     pagecolor="#ffffff"
     bordercolor="#666666"
     borderopacity="1"
     objecttolerance="10"
     gridtolerance="10"
     guidetolerance="10"
     inkscape:pageopacity="0"
     inkscape:pageshadow="2"
     inkscape:window-width="1920"
     inkscape:window-height="1017"
     id="namedview12"
     showgrid="false"
     inkscape:zoom="2.2857468"
     inkscape:cx="82.813757"
     inkscape:cy="147.35457"
     inkscape:window-x="-8"
     inkscape:window-y="-8"
     inkscape:window-maximized="1"
     inkscape:current-layer="g6" /><g
     id="youtube__x2C__social__x2C_media__x2C__icons_x2C_"
     transform="matrix(0.53060564,0,0,0.53060564,-7.3644786,-7.8019724)"><g
       id="g6"><polygon
         points="222.899,205.461 222.91,227.346 222.925,299.326 309.446,252.567 261.923,226.722 "
         style="clip-rule:evenodd;fill:#0085ca;fill-rule:evenodd;fill-opacity:1"
         id="polygon2" /><path
         d="M 434.478,16 H 77.519 C 43.718,16 16,43.717 16,77.521 V 434.478 C 16,468.286 43.718,496 77.519,496 H 434.478 C 468.281,496 496,468.286 496,434.479 V 77.521 C 496,43.717 468.281,16 434.478,16 Z M 416,247.932 v 20.656 c 0,27.054 -3.129,54.085 -3.129,54.085 0,0 -3.072,23.013 -12.678,33.141 -12.177,13.327 -25.816,13.378 -32.048,14.169 -44.861,3.352 -112.157,3.482 -112.157,3.482 0,0 -83.288,-0.813 -108.927,-3.367 -7.103,-1.385 -23.119,-0.957 -35.339,-14.27 -9.58,-10.121 -12.608,-33.155 -12.608,-33.155 0,0 -3.114,-27.031 -3.114,-54.085 v -22.075 -3.257 c 0,-27.028 3.116,-54.057 3.116,-54.057 0,0 3.078,-23.03 12.658,-33.169 12.221,-13.303 25.828,-13.142 32.089,-13.893 C 188.677,138.76 255.924,139 255.924,139 h 0.148 c 0,0 67.234,-0.24 112.096,3.116 6.231,0.772 19.893,0.732 32.069,14.035 9.605,10.116 12.634,33.098 12.634,33.098 0,0 3.129,26.979 3.129,54.007 z"
         style="clip-rule:evenodd;fill:#0085ca;fill-rule:evenodd;fill-opacity:1"
         id="path4" /></g></g><g
     id="Layer_1" /></svg>
