<svg xmlns="http://www.w3.org/2000/svg" width="2240" height="1817.333" fill="#fff" stroke="#000" xmlns:v="https://vecta.io/nano"><path d="M182.202 31.17v14.735l-15.585-.283-.567 115.329 17.285.85v27.77l405.492.283.85 181.635 126.38.567-.567-150.465h296.397l-.567-13.601h14.735l.283-108.528-15.302-.567.283-67.724-385.373-.283V46.19h-21.252v94.36h-24.369V32.587zm.533 173.205l.2 61.112-17.833.401.801 71.932 16.831 1.403-.401 21.039-.132 5.985-67.582-.708.142 169.592 332.526.992.142-3.542 38.821.283 5.752.064v3.006l83.79.047-.992-93.935 14.097.354-.218-54.889-14.627-.401.606-182.806zm-67.761 346.907l-.354 57.452H98.185l.567 111.149 16.435-.142-.425 29.186 453.947-.283.142-114.478 19.41-.142.142-54.264-14.026-.142V550.29zm-.364 212.92l.401 150.276 67.191.217-.469 24.429-13.725-.1.1 83.653 14.426.1-.474 76.245 390.898.142 2.267.283-.85-177.668 14.451.283v-54.406h-14.451v-102.01zm0 350.242l.401 52.697-16.831.2v71.932l17.031.601-.801 31.057H31.658l-.2 152.68 420.972.2c-.2-2.404 0-103.991 0-103.991l123.363.365-.142-36.695h13.601l-.142-54.972-15.018-.142-.283-113.062zm-83.157 324.045v154.999l83.758-.166-.401 94.173-15.829-.1v99.282l475.961-.643-.288-451.586-107.814.331.217 104.06zm558.128 6.962l-.471 290.569 77.216-.142-.142 16.152 73.533-.567v-16.01l26.636.425-.349 49.196 113.809.802-.801-346.836-43.68-.301-.1-13.926-55.101.1-.1 14.126-57.706-.401.1 7.013zm303.932-6.962l.496 298.239 76.083.142-.212 14.843 92.47.1v-16.63l18.434.2h6.412l-.2 50.593 177.936.341-1.412-246.893 2.004-.2-.2-100.785zm386.293.425l.142 148.765-.201 198.997 186.743-.601-.089-49.631h26.069v15.302l98.61 1.133v-17.285h67.157l.405-298.158-206.835 1.053-.283-14.168-54.831-.142-.283 14.451zm393.864-.476l.152 298.29 59.506-.567v16.435h67.44l.85-17.285 22.952 1.133-.225 49.23 384.806.501-.301-337.92h-133.845l.401-10.018zm535.99-15.392l-427.877-.567-.283-51.855-14.026-.142v-55.539l14.593-.142-.283-14.026-479.394-.19v-205.577l18.434-.802-.601-15.428h117.015v15.829l624.792.305-.283-15.868 116.274-.118-.282 16.433 30.651-.822zM730.822 237.293l-.052 149.903-3.688-.54-.209 49.591-2.552-.265.221 30.602-14.732.39-.164 55.825 14.736.177-.985 373.082 257.483.547-.472-37.667 13.632.904-.718-99.58-13.63-.703.131-42.617 98.949.325.449-48.648 13.888.325-.393-74.098-14.593.105.025-158.702-66.725-.12.569-91.625 12.611.192-.329-99.214-12.623.091-.056-7.814z" stroke-opacity="0" fill-opacity=".122"/></svg>