<?xml version="1.0" encoding="UTF-8" standalone="no"?>
<svg
   xmlns:dc="http://purl.org/dc/elements/1.1/"
   xmlns:cc="http://creativecommons.org/ns#"
   xmlns:rdf="http://www.w3.org/1999/02/22-rdf-syntax-ns#"
   xmlns:svg="http://www.w3.org/2000/svg"
   xmlns="http://www.w3.org/2000/svg"
   xmlns:sodipodi="http://sodipodi.sourceforge.net/DTD/sodipodi-0.dtd"
   xmlns:inkscape="http://www.inkscape.org/namespaces/inkscape"
   viewBox="0 0 851 256"
   height="256"
   width="851"
   xml:space="preserve"
   id="svg2"
   version="1.1"
   sodipodi:docname="absolut-logo.svg"
   inkscape:version="1.0.2-2 (e86c870879, 2021-01-15)"><sodipodi:namedview
     pagecolor="#ffffff"
     bordercolor="#666666"
     borderopacity="1"
     objecttolerance="10"
     gridtolerance="10"
     guidetolerance="10"
     inkscape:pageopacity="0"
     inkscape:pageshadow="2"
     inkscape:window-width="1920"
     inkscape:window-height="1017"
     id="namedview38"
     showgrid="false"
     inkscape:zoom="0.98953574"
     inkscape:cx="456.73266"
     inkscape:cy="123.11958"
     inkscape:window-x="-8"
     inkscape:window-y="-8"
     inkscape:window-maximized="1"
     inkscape:current-layer="g14" /><metadata
     id="metadata8"><rdf:RDF><cc:Work
         rdf:about=""><dc:format>image/svg+xml</dc:format><dc:type
           rdf:resource="http://purl.org/dc/dcmitype/StillImage" /><dc:title></dc:title></cc:Work></rdf:RDF></metadata><defs
     id="defs6"><clipPath
       id="clipPath18"
       clipPathUnits="userSpaceOnUse"><path
         id="path16"
         d="M 0,1080 H 1920 V 0 H 0 Z" /></clipPath></defs><g
     transform="matrix(1.3333333,0,0,-1.3333333,0,1440)"
     id="g10"><g
       id="g12"><g
         clip-path="url(#clipPath18)"
         id="g14"><g
           transform="matrix(1.0190663,0,0,1.0190663,636.54537,1054.664)"
           id="g68"><path
             id="path70"
             style="fill:#00f500;fill-opacity:1;fill-rule:nonzero;stroke:none"
             d="m 0,0 c 0,-12.506 -10.139,-22.645 -22.645,-22.645 -12.507,0 -22.646,10.139 -22.646,22.645 0,12.507 10.139,22.646 22.646,22.646 C -10.139,22.646 0,12.507 0,0" /></g><g
           transform="matrix(1.0190663,0,0,1.0190663,279.71942,1056.1996)"
           id="g72"><path
             id="path74"
             style="fill:#ff5000;fill-opacity:1;fill-rule:nonzero;stroke:none"
             d="m 0,0 c -19.645,0 -35.154,-15.122 -35.154,-34.121 0,-18.869 15.509,-33.991 35.154,-33.991 19.516,0 35.284,15.122 35.284,33.991 C 35.284,-15.122 19.257,0 0,0 m 0,-54.8 c -12.02,0 -20.808,9.048 -20.808,20.679 0,11.762 8.788,20.808 20.808,20.808 11.632,0 20.809,-9.046 20.809,-20.808 C 20.809,-45.752 11.891,-54.8 0,-54.8 m -142.297,29.985 h -24.686 v 10.469 h 41.746 V -1.551 H -181.2 v -64.881 h 38.903 c 13.182,0 22.359,8.789 22.359,20.808 0,12.02 -9.306,20.809 -22.359,20.809 m -1.681,-28.822 h -23.005 v 16.156 h 23.005 c 6.462,0 9.564,-3.36 9.564,-8.143 0,-4.781 -2.972,-8.013 -9.564,-8.013 m 67.983,40.324 c 13.958,0 17.835,-10.727 17.835,-10.727 h 14.993 c 0,0 -5.945,24.04 -32.828,24.04 -19.257,0 -34.379,-15.122 -34.379,-34.121 0,-19.128 15.122,-34.12 34.379,-34.12 26.883,0 32.828,24.039 32.828,24.039 H -58.16 c 0,0 -3.877,-10.727 -17.835,-10.727 -11.374,0 -19.904,9.047 -19.904,20.808 0,11.762 8.53,20.808 19.904,20.808 M 66.561,-1.551 38.773,-66.432 h 14.993 l 21.584,51.827 21.583,-51.827 h 15.639 L 84.784,-1.551 Z m 156.514,-13.442 h 23.781 v -51.439 h 14.217 v 51.439 h 23.781 V -1.551 H 223.075 Z M 183.268,0 c -17.06,0 -30.889,-11.761 -33.991,-27.4 h -12.02 v 25.849 h -14.216 v -64.881 h 14.216 v 25.849 h 12.02 c 2.973,-15.768 16.931,-27.529 33.991,-27.529 19.128,0 34.638,15.122 34.638,33.991 C 217.906,-15.122 202.267,0 183.268,0 m 0,-54.8 c -11.761,0 -20.42,9.048 -20.42,20.679 0,11.762 8.659,20.808 20.42,20.808 11.374,0 20.421,-9.046 20.421,-20.808 0,-11.631 -8.789,-20.679 -20.421,-20.679 m -398.718,42.005 h -2.455 C -222.429,-4.653 -230.83,0 -240.523,0 c -15.897,0 -30.631,-14.863 -30.631,-34.121 0,-19.257 14.346,-33.991 30.631,-33.991 9.693,0 18.094,4.653 22.618,12.795 h 2.455 v -11.115 h 14.217 v 64.881 h -14.217 z m -20.808,-42.134 c -11.503,0 -20.55,9.047 -20.55,20.808 0,11.762 9.047,20.808 20.55,20.808 11.503,0 20.808,-9.046 20.808,-20.808 0,-11.761 -9.305,-20.808 -20.808,-20.808 M 17.289,-119.646 H -7.287 v 10.608 h 41.65 v 12.676 h -55.879 v -64.933 h 38.805 c 13.323,0 22.378,8.795 22.378,20.824 0,12.031 -9.184,20.825 -22.378,20.825 m -1.682,-28.973 H -7.287 v 16.298 h 22.894 c 6.468,0 9.572,-3.364 9.572,-8.15 0,-4.785 -2.974,-8.148 -9.572,-8.148 m 235.41,20.437 33.631,31.82 H 265.24 l -30.128,-29.75 v 29.75 h -14.228 v -64.933 h 14.228 v 29.879 l 30.387,-29.879 h 20.831 z m -64.281,6.079 h -33.242 v 25.741 h -14.229 v -64.933 h 14.229 v 25.74 h 33.242 v -25.74 h 14.228 v 64.933 h -14.228 z m -81.619,14.488 h -2.458 c -4.527,8.148 -12.934,12.804 -22.636,12.804 -15.91,0 -30.655,-14.875 -30.655,-34.147 0,-19.273 14.358,-34.019 30.655,-34.019 9.702,0 18.109,4.657 22.636,12.805 h 2.458 v -11.123 h 14.228 v 64.933 h -14.228 z m -20.825,-42.168 c -11.512,0 -20.566,9.054 -20.566,20.825 0,11.77 9.054,20.825 20.566,20.825 11.512,0 20.825,-9.055 20.825,-20.825 0,-11.771 -9.313,-20.825 -20.825,-20.825" /></g></g></g></g></svg>
