<?xml version="1.0" encoding="UTF-8" standalone="no"?>
<svg
   xmlns:ns="&amp;ns_sfw;"
   xmlns:dc="http://purl.org/dc/elements/1.1/"
   xmlns:cc="http://creativecommons.org/ns#"
   xmlns:rdf="http://www.w3.org/1999/02/22-rdf-syntax-ns#"
   xmlns:svg="http://www.w3.org/2000/svg"
   xmlns="http://www.w3.org/2000/svg"
   xmlns:sodipodi="http://sodipodi.sourceforge.net/DTD/sodipodi-0.dtd"
   xmlns:inkscape="http://www.inkscape.org/namespaces/inkscape"
   version="1.1"
   id="Слой_1"
   x="0px"
   y="0px"
   viewBox="0 0 256.00001 256"
   xml:space="preserve"
   sodipodi:docname="otkr-logo.svg"
   width="256"
   height="256"
   inkscape:version="1.0.2-2 (e86c870879, 2021-01-15)"><defs
   id="defs29" /><sodipodi:namedview
   pagecolor="#ffffff"
   bordercolor="#666666"
   borderopacity="1"
   objecttolerance="10"
   gridtolerance="10"
   guidetolerance="10"
   inkscape:pageopacity="0"
   inkscape:pageshadow="2"
   inkscape:window-width="1920"
   inkscape:window-height="1017"
   id="namedview27"
   showgrid="false"
   inkscape:zoom="1.2095166"
   inkscape:cx="77.950877"
   inkscape:cy="118.46744"
   inkscape:window-x="-8"
   inkscape:window-y="-8"
   inkscape:window-maximized="1"
   inkscape:current-layer="g24" />
<style
   type="text/css"
   id="style2">
	.st0{fill:#00BEF0;}
</style>
<metadata
   id="metadata4">
	<ns:sfw>
		<ns:slices />
		<ns:sliceSourceBounds
   bottomLeftOrigin="true"
   height="58"
   width="223.6"
   x="-124.9"
   y="-579" />
	</ns:sfw>
<rdf:RDF><cc:Work
     rdf:about=""><dc:format>image/svg+xml</dc:format><dc:type
       rdf:resource="http://purl.org/dc/dcmitype/StillImage" /><dc:title></dc:title></cc:Work></rdf:RDF></metadata>
<g
   id="g16">
	
</g>
<g
   id="g24">
	<g
   id="g20"
   transform="matrix(5.7815879,0,0,5.7815879,-107.86386,-104.99491)">
		<path
   class="st0"
   d="m 40.8,18.5 c -12,0 -21.7,9.7 -21.7,21.7 0,12 9.7,21.7 21.7,21.7 12,0 21.7,-9.7 21.7,-21.7 -0.1,-12 -9.8,-21.7 -21.7,-21.7 z m -3.1,30.9 -1.6,4.7 c -6,-2 -10,-7.7 -10,-14.1 0,-6.4 4,-12 10.1,-14.1 l 1.6,4.7 c -4,1.3 -6.6,5.1 -6.6,9.3 -0.1,4.5 2.5,8.2 6.5,9.5 z m 7.4,4.9 -1.5,-4.8 c 4.1,-1.3 6.8,-5.1 6.8,-9.4 0,-4.3 -2.7,-8 -6.7,-9.3 L 45.3,26 c 6.1,2 10.2,7.7 10.2,14.1 0,6.5 -4.2,12.2 -10.4,14.2 z"
   id="path18" />
	</g>
	
</g>
</svg>
