<svg xmlns="http://www.w3.org/2000/svg" width="307" height="307" fill="#fff" xmlns:v="https://vecta.io/nano"><path d="M252.962 104.554a8.589 8.589 0 0 0 .256-1.852l3.896-2.318a6.228 6.228 0 0 1 4.388-.828 13.211 13.211 0 0 0 9.355-1.602l4.73-2.814a13.259 13.259 0 0 0 4.486-18.384 13.495 13.495 0 0 0-18.331-4.234l-4.442 2.647a13.205 13.205 0 0 0-5.874 7.456 6.219 6.219 0 0 1-2.82 3.462l-3.904 2.324a8.558 8.558 0 0 0-8.231.279l-4.315 2.566a102.502 102.502 0 0 0-68.817-39.178v-4.979a8.561 8.561 0 0 0-3.969-7.216v-4.546a6.222 6.222 0 0 1 1.532-4.194 13.209 13.209 0 0 0 3.405-8.858v-5.504a13.259 13.259 0 0 0-13.508-13.256 13.496 13.496 0 0 0-13.013 13.589v5.167a13.213 13.213 0 0 0 3.404 8.858 6.218 6.218 0 0 1 1.533 4.194v4.542a8.558 8.558 0 0 0-3.969 7.216v4.984a102.5 102.5 0 0 0-68.806 39.153l-4.283-2.549a8.563 8.563 0 0 0-8.23-.279l-3.904-2.324a6.217 6.217 0 0 1-2.819-3.461 13.207 13.207 0 0 0-5.87-7.445l-4.444-2.644a13.494 13.494 0 0 0-18.33 4.234 13.257 13.257 0 0 0 4.487 18.384l4.729 2.814a13.199 13.199 0 0 0 9.354 1.602 6.228 6.228 0 0 1 4.388.827l3.897 2.324a8.529 8.529 0 0 0 4.178 7.104l4.24 2.522a102.389 102.389 0 0 0-.029 82.944l-4.258 2.533a8.503 8.503 0 0 0-3.923 5.252 8.614 8.614 0 0 0-.256 1.853l-3.896 2.317a6.228 6.228 0 0 1-4.39.827 13.205 13.205 0 0 0-9.352 1.603l-4.444 2.635a13.495 13.495 0 0 0-5.025 18.126 13.161 13.161 0 0 0 8.136 6.255 13.363 13.363 0 0 0 3.408.444 13.168 13.168 0 0 0 6.753-1.87l4.729-2.814a13.199 13.199 0 0 0 5.873-7.457 6.228 6.228 0 0 1 2.82-3.461l3.91-2.324a8.624 8.624 0 0 0 3.859.93 8.513 8.513 0 0 0 4.369-1.202l4.286-2.55a102.507 102.507 0 0 0 68.849 39.21v4.926a8.557 8.557 0 0 0 3.969 7.215v4.542a6.221 6.221 0 0 1-1.533 4.195 13.21 13.21 0 0 0-3.404 8.857v5.171a13.494 13.494 0 0 0 13.013 13.589h.252a13.26 13.26 0 0 0 13.254-13.258v-5.494a13.211 13.211 0 0 0-3.405-8.858 6.22 6.22 0 0 1-1.532-4.194v-4.542a8.559 8.559 0 0 0 3.969-7.215v-4.926a102.504 102.504 0 0 0 68.864-39.226l4.319 2.57a8.513 8.513 0 0 0 4.369 1.201 8.618 8.618 0 0 0 3.858-.93l3.911 2.324a6.228 6.228 0 0 1 2.82 3.462 13.199 13.199 0 0 0 5.872 7.455l4.731 2.815a13.161 13.161 0 0 0 6.752 1.87 13.363 13.363 0 0 0 3.408-.444 13.161 13.161 0 0 0 8.136-6.255 13.495 13.495 0 0 0-5.026-18.126l-4.443-2.644a13.207 13.207 0 0 0-9.353-1.603 6.228 6.228 0 0 1-4.389-.827l-3.897-2.318a8.605 8.605 0 0 0-.256-1.853 8.503 8.503 0 0 0-3.923-5.252l-4.294-2.555a102.393 102.393 0 0 0-.04-82.912l4.276-2.544a8.509 8.509 0 0 0 3.922-5.252zm-1.067-12.941a12.641 12.641 0 0 0 5.679-7.088 6.78 6.78 0 0 1 3.015-3.83l4.438-2.645a7.032 7.032 0 0 1 9.574 2.094 6.822 6.822 0 0 1-2.307 9.462l-4.729 2.814a6.785 6.785 0 0 1-4.806.823 12.641 12.641 0 0 0-8.938 1.607l-2.743 1.632-1.927-3.239zM144.224 17.112a7.03 7.03 0 0 1 6.693-7.157 6.822 6.822 0 0 1 6.952 6.821v5.504a6.785 6.785 0 0 1-1.749 4.549 12.641 12.641 0 0 0-3.19 8.507v3.192h-3.77v-3.192a12.641 12.641 0 0 0-3.188-8.503 6.785 6.785 0 0 1-1.749-4.549zm.968 29.985a2.132 2.132 0 0 1 2.13-2.13h7.45a2.131 2.131 0 0 1 2.13 2.13v4.415l-5.856-.17-5.856.17zM39.378 93.245a6.785 6.785 0 0 1-4.805-.823l-4.728-2.814a6.821 6.821 0 0 1-2.307-9.462 7.031 7.031 0 0 1 9.574-2.096l4.444 2.644a6.778 6.778 0 0 1 3.014 3.828 12.641 12.641 0 0 0 5.678 7.088l2.743 1.632-1.927 3.239-2.744-1.632a12.655 12.655 0 0 0-8.943-1.605zm17.01 11.03a2.128 2.128 0 0 1-.744-2.918l3.811-6.403a2.132 2.132 0 0 1 2.919-.744l3.778 2.248a102.664 102.664 0 0 0-6.004 10.053zm-6.192 111.728a12.641 12.641 0 0 0-5.678 7.088 6.78 6.78 0 0 1-3.015 3.83l-4.728 2.814a6.824 6.824 0 0 1-9.418-2.486 7.032 7.032 0 0 1 2.726-9.41l4.445-2.644a6.778 6.778 0 0 1 4.803-.823 12.641 12.641 0 0 0 8.938-1.608l2.743-1.632 1.928 3.24zM62.33 213.4a2.131 2.131 0 0 1-2.92-.744l-3.811-6.403a2.129 2.129 0 0 1 .744-2.919l3.774-2.245a102.78 102.78 0 0 0 5.996 10.057zm95.538 77.429a6.775 6.775 0 0 1-2.045 4.869 6.858 6.858 0 0 1-4.91 1.952 7.031 7.031 0 0 1-6.693-7.157v-5.16a6.785 6.785 0 0 1 1.749-4.548 12.641 12.641 0 0 0 3.188-8.504v-3.192h3.771v3.192a12.641 12.641 0 0 0 3.188 8.503 6.785 6.785 0 0 1 1.749 4.549zm-.969-30.313a2.131 2.131 0 0 1-2.13 2.13h-7.45a2.132 2.132 0 0 1-2.13-2.13v-4.361l5.856.171 5.856-.171zm105.908-46.152a6.785 6.785 0 0 1 4.804.823l4.443 2.644a7.031 7.031 0 0 1 2.727 9.41 6.823 6.823 0 0 1-9.417 2.486l-4.73-2.815a6.778 6.778 0 0 1-3.014-3.828 12.641 12.641 0 0 0-5.677-7.088l-2.744-1.632 1.928-3.24 2.743 1.633a12.641 12.641 0 0 0 8.94 1.611zm-17.01-11.031a2.129 2.129 0 0 1 .744 2.919l-3.811 6.403a2.129 2.129 0 0 1-2.919.744l-3.817-2.27a102.683 102.683 0 0 0 5.994-10.059zm-94.75 46.561a96.061 96.061 0 1 1 96.061-96.06 96.169 96.169 0 0 1-96.061 96.06zm95.679-146.924a2.117 2.117 0 0 1-.975 1.306l-3.796 2.258a102.668 102.668 0 0 0-6.001-10.055l3.811-2.266a2.131 2.131 0 0 1 2.92.744l3.811 6.403a2.113 2.113 0 0 1 .231 1.61zm-95.679-31.055a81.919 81.919 0 1 0 81.918 81.919 82.011 82.011 0 0 0-81.918-81.919zM208.71 105.2l-7.108 4.228a67.17 67.17 0 0 0-38.263-21.76v-8.302a75.465 75.465 0 0 1 45.371 25.832zm9.975 15.179l-15.42 9.173a2.138 2.138 0 0 1-2.919-.744l-3.811-6.403a2.132 2.132 0 0 1 .744-2.92l15.395-9.159a75.411 75.411 0 0 1 6.011 10.051zm-6.771 33.456a60.599 60.599 0 0 1-3.327 19.877l-1.985-1.18a8.559 8.559 0 0 0-8.232-.279l-27.899-16.598.093-1.82-.093-1.901 27.865-16.578a8.622 8.622 0 0 0 3.859.93 8.515 8.515 0 0 0 4.369-1.203l2.008-1.194a60.618 60.618 0 0 1 3.342 19.946zm.801 43.446l-15.39-9.156a2.131 2.131 0 0 1-.744-2.919l3.811-6.403a2.132 2.132 0 0 1 2.92-.744l15.406 9.164a75.619 75.619 0 0 1-6.003 10.056zM83.386 187.247l15.442-9.186a2.131 2.131 0 0 1 2.919.744l3.811 6.404a2.129 2.129 0 0 1-.744 2.918l-15.422 9.175a75.407 75.407 0 0 1-6.007-10.055zm6.794-33.413a60.591 60.591 0 0 1 3.357-19.97l2.045 1.218a8.521 8.521 0 0 0 4.369 1.203 8.634 8.634 0 0 0 3.859-.93l27.819 16.551a19.71 19.71 0 0 0-.093 1.928 19.79 19.79 0 0 0 .093 1.847l-27.854 16.571a8.56 8.56 0 0 0-8.231.279l-2.024 1.204a60.604 60.604 0 0 1-3.342-19.901zm-.744-43.525l15.43 9.179a2.131 2.131 0 0 1 .744 2.919l-3.811 6.402a2.13 2.13 0 0 1-2.92.744l-15.455-9.195a75.606 75.606 0 0 1 6.008-10.049zm102.561 70.023l-25.219-15.001a19.52 19.52 0 0 0 1.925-3.242l25.217 15.002zm-81.848 0l-1.928-3.241 25.18-14.98a19.483 19.483 0 0 0 1.929 3.24zm.046-53.055l25.177 14.979a19.566 19.566 0 0 0-1.941 3.233l-25.164-14.972zm27.767 26.556a13.082 13.082 0 1 1 13.083 13.078 13.098 13.098 0 0 1-13.083-13.078zm28.774-11.554l25.209-14.998 1.928 3.24-25.2 14.993a19.547 19.547 0 0 0-1.937-3.236zm27.251-28.319a8.561 8.561 0 0 0-4.172 7.101l-27.88 16.587a19.498 19.498 0 0 0-2.569-1.441v-32.466a8.559 8.559 0 0 0 3.969-7.215v-2.324a60.752 60.752 0 0 1 32.638 18.568zm-41.057 20.449c-.621-.06-3.149-.06-3.769 0V105.09h3.766zm-10.205-30.668v32.461a19.494 19.494 0 0 0-2.548 1.427l-27.856-16.573a8.56 8.56 0 0 0-4.173-7.101l-2.015-1.199a60.712 60.712 0 0 1 32.621-18.546v2.314a8.559 8.559 0 0 0 3.97 7.217zm-34.622 89.912a8.514 8.514 0 0 0 3.925-5.252 8.666 8.666 0 0 0 .257-1.853l27.831-16.557a19.534 19.534 0 0 0 2.609 1.475v32.407a8.559 8.559 0 0 0-3.97 7.216v2.375a60.748 60.748 0 0 1-32.67-18.604zm41.058-20.399a39.82 39.82 0 0 0 3.769 0v29.264h-3.769zm10.205 30.614v-32.402a19.491 19.491 0 0 0 2.632-1.487l27.863 16.577a8.559 8.559 0 0 0 4.172 7.101l1.985 1.18a60.697 60.697 0 0 1-32.68 18.621v-2.375a8.561 8.561 0 0 0-3.972-7.216zm-2.467-125.27v17.928a2.131 2.131 0 0 1-2.13 2.13h-7.45a2.132 2.132 0 0 1-2.13-2.13V78.599l5.856-.249 5.853.249zm-18.144.768v8.3a67.141 67.141 0 0 0-38.252 21.743l-7.108-4.228a75.47 75.47 0 0 1 45.36-25.814zm-57.964 46.915l7.116 4.234a67.343 67.343 0 0 0-.024 46.569l-7.118 4.235a75.189 75.189 0 0 1 .026-55.036zm12.559 76.15l7.108-4.228a67.166 67.166 0 0 0 38.296 21.795v8.302a75.466 75.466 0 0 1-45.404-25.868zm51.84 26.635v-17.982a2.132 2.132 0 0 1 2.13-2.13h7.45a2.131 2.131 0 0 1 2.13 2.13v17.982l-5.856.249c-1.973 0-3.918-.1-5.853-.249zm18.145-.767v-8.302a67.111 67.111 0 0 0 38.316-21.811l7.104 4.226A75.472 75.472 0 0 1 163.34 228.3zm58.002-47.005l-7.119-4.236a67.329 67.329 0 0 0-.024-46.521l7.116-4.234a75.19 75.19 0 0 1 .027 54.991z"/></svg>