<?xml version="1.0" encoding="UTF-8" standalone="no"?>
<svg
   xmlns:dc="http://purl.org/dc/elements/1.1/"
   xmlns:cc="http://creativecommons.org/ns#"
   xmlns:rdf="http://www.w3.org/1999/02/22-rdf-syntax-ns#"
   xmlns:svg="http://www.w3.org/2000/svg"
   xmlns="http://www.w3.org/2000/svg"
   xmlns:sodipodi="http://sodipodi.sourceforge.net/DTD/sodipodi-0.dtd"
   xmlns:inkscape="http://www.inkscape.org/namespaces/inkscape"
   width="512"
   height="512"
   viewBox="0 0 128 128"
   version="1.1"
   id="svg12"
   sodipodi:docname="sailboat.svg"
   inkscape:version="1.0.2-2 (e86c870879, 2021-01-15)">
  <metadata
     id="metadata18">
    <rdf:RDF>
      <cc:Work
         rdf:about="">
        <dc:format>image/svg+xml</dc:format>
        <dc:type
           rdf:resource="http://purl.org/dc/dcmitype/StillImage" />
        <dc:title></dc:title>
      </cc:Work>
    </rdf:RDF>
  </metadata>
  <defs
     id="defs16" />
  <sodipodi:namedview
     pagecolor="#ffffff"
     bordercolor="#666666"
     borderopacity="1"
     objecttolerance="10"
     gridtolerance="10"
     guidetolerance="10"
     inkscape:pageopacity="0"
     inkscape:pageshadow="2"
     inkscape:window-width="1920"
     inkscape:window-height="1001"
     id="namedview14"
     showgrid="false"
     inkscape:zoom="1.5657858"
     inkscape:cx="256"
     inkscape:cy="256"
     inkscape:window-x="-9"
     inkscape:window-y="-9"
     inkscape:window-maximized="1"
     inkscape:current-layer="svg12" />
  <g
     id="g10"
     style="fill:#0085ca;fill-opacity:1">
    <path
       d="M100.29,100.583a1.748,1.748,0,0,0,2.449-.351c1.055-1.407,2.041-2.809,2.934-4.167a1.75,1.75,0,0,0-2.926-1.922c-.852,1.3-1.8,2.641-2.809,3.99A1.75,1.75,0,0,0,100.29,100.583Z"
       id="path2"
       style="fill:#0085ca;fill-opacity:1" />
    <path
       d="M49.867,88.764c.047,0,.093.006.139.006a1.75,1.75,0,0,0,.135-3.495,298.321,298.321,0,0,1-29.73-3.619A1.75,1.75,0,1,0,19.78,85.1,301.233,301.233,0,0,0,49.867,88.764Z"
       id="path4"
       style="fill:#0085ca;fill-opacity:1" />
    <path
       d="M6.5,105.25a14.026,14.026,0,0,1,8.651,2.732A17.55,17.55,0,0,0,25.67,111.25c.292,0,.583,0,.765-.021a17.482,17.482,0,0,0,9.748-3.249,14.012,14.012,0,0,1,8.647-2.73,14.021,14.021,0,0,1,8.651,2.733,18.549,18.549,0,0,0,21.028,0,15.058,15.058,0,0,1,17.3,0,17.581,17.581,0,0,0,8.7,3.192c.547.053,1.144.078,1.827.078a17.534,17.534,0,0,0,10.508-3.266,14.041,14.041,0,0,1,8.662-2.734,1.75,1.75,0,0,0,0-3.5,17.55,17.55,0,0,0-10.519,3.268,14.5,14.5,0,0,1-6.437,2.587c4.8-5.8,11.93-15.688,13.267-24.616a1.751,1.751,0,0,0-1.755-2.009c-25.309.351-45.107-.3-60.306-1.328V74.92H88.5a1.75,1.75,0,0,0,1.443-2.74C78.5,55.491,64.3,34.052,55.75,15.95V9.5a4.75,4.75,0,0,0-9.5,0v1.514C27,26.508,16.153,41.552,15.69,53.431c-.188,4.861,1.349,8.958,4.447,11.849,5.595,5.22,18.173,7.85,26.113,9.037v4.592C22.012,76.75,12.625,73.75,12.476,73.7A1.751,1.751,0,0,0,10.2,75.673a90.284,90.284,0,0,0,12.761,31.86,14.98,14.98,0,0,1-5.951-2.517A17.537,17.537,0,0,0,6.5,101.75a1.75,1.75,0,0,0,0,3.5ZM85.183,71.42H55.75V23.829C63.935,39.616,75.366,57.03,85.183,71.42Zm-62.659-8.7c-2.331-2.176-3.484-5.341-3.337-9.154.239-6.115,4.154-19.017,27.063-38.033V70.773C39.574,69.742,27.445,67.31,22.524,62.721ZM49.75,9.5a1.25,1.25,0,0,1,2.5,0V79.4c-.848-.064-1.683-.129-2.5-.195Zm64.188,75.007c-2.217,8.85-10,18.549-13.974,23.079a14.512,14.512,0,0,1-6.3-2.573,18.533,18.533,0,0,0-21.009,0,14.039,14.039,0,0,1-8.662,2.734,14.023,14.023,0,0,1-8.651-2.733A17.523,17.523,0,0,0,44.83,101.75a17.526,17.526,0,0,0-10.5,3.264,14.24,14.24,0,0,1-7.078,2.652A87.517,87.517,0,0,1,14.2,77.806C22.588,79.883,50.614,85.248,113.938,84.507Z"
       id="path6"
       style="fill:#0085ca;fill-opacity:1" />
    <path
       d="M121.5,113.75a17.543,17.543,0,0,0-10.514,3.267,15.074,15.074,0,0,1-17.312,0,18.55,18.55,0,0,0-21.027,0,14.032,14.032,0,0,1-8.655,2.733,14.034,14.034,0,0,1-8.655-2.733,17.533,17.533,0,0,0-10.512-3.267,17.525,17.525,0,0,0-10.509,3.267,14.021,14.021,0,0,1-8.651,2.733,14.028,14.028,0,0,1-8.653-2.733A17.543,17.543,0,0,0,6.5,113.75a1.75,1.75,0,0,0,0,3.5,14.028,14.028,0,0,1,8.654,2.733,17.532,17.532,0,0,0,10.511,3.267,17.525,17.525,0,0,0,10.509-3.267,14.023,14.023,0,0,1,8.651-2.733,14.028,14.028,0,0,1,8.654,2.733,18.549,18.549,0,0,0,21.026,0,15.073,15.073,0,0,1,17.311,0,18.552,18.552,0,0,0,21.028,0,14.035,14.035,0,0,1,8.656-2.733,1.75,1.75,0,0,0,0-3.5Z"
       id="path8"
       style="fill:#0085ca;fill-opacity:1" />
  </g>
</svg>
