<svg xmlns="http://www.w3.org/2000/svg" width="20" height="32" viewBox="0 0 15 24" preserveAspectRatio="xMidYMid meet" xmlns:v="https://vecta.io/nano"><path d="M4.549.553L1.185.829.454.913l.03.494.474 11.36.464 10.886c.01.01.356.005.761-.015l.746-.035v-.217c0-.282-.217-6.95-.351-10.708-.074-2.168-.084-2.919-.044-2.944.138-.089 1.887-.286 3.038-.346 2.015-.109 4.184.123 7.646.81.766.148 1.067.193 1.052.148a228.95 228.95 0 0 0-1.492-2.519c-1.2-2.02-1.452-2.47-1.393-2.509a209.2 209.2 0 0 0 3.388-2.973c-.044-.04-2.672-.855-3.418-1.057C9.632.819 8.505.627 6.999.548 5.981.493 5.907.493 4.549.553z" fill="#0085ca"/></svg>