<?xml version="1.0" encoding="UTF-8" standalone="no"?>
<svg
   enable-background="new 0 0 24 24"
   height="24px"
   id="Layer_1"
   version="1.1"
   viewBox="0 0 24 24"
   width="24px"
   xml:space="preserve"
   sodipodi:docname="building.svg"
   inkscape:version="1.1.1 (3bf5ae0d25, 2021-09-20)"
   xmlns:inkscape="http://www.inkscape.org/namespaces/inkscape"
   xmlns:sodipodi="http://sodipodi.sourceforge.net/DTD/sodipodi-0.dtd"
   xmlns="http://www.w3.org/2000/svg"
   xmlns:svg="http://www.w3.org/2000/svg"><defs
     id="defs25" /><sodipodi:namedview
     id="namedview23"
     pagecolor="#ffffff"
     bordercolor="#666666"
     borderopacity="1.0"
     inkscape:pageshadow="2"
     inkscape:pageopacity="0.0"
     inkscape:pagecheckerboard="0"
     showgrid="false"
     inkscape:zoom="16.708333"
     inkscape:cx="6.882793"
     inkscape:cy="11.700748"
     inkscape:window-width="1920"
     inkscape:window-height="991"
     inkscape:window-x="-9"
     inkscape:window-y="-9"
     inkscape:window-maximized="1"
     inkscape:current-layer="g20" /><g
     id="g20"
     style="fill:#000000;fill-opacity:1;stroke-width:5;stroke-miterlimit:4;stroke-dasharray:none"><path
       d="M23,6h-8V1c0-0.6-0.4-1-1-1H1C0.4,0,0,0.4,0,1v23h24V7C24,6.4,23.6,6,23,6z M22,8v14h-7V8H22z M13,2v5v15h-3v-5H5v5H2V2H13   z M6,22v-4h3v4H6z"
       id="path2"
       style="fill:#0085ca;fill-opacity:1;stroke-width:1;stroke-miterlimit:4;stroke-dasharray:none;opacity:1" /><path
       d="M7,4H4v3h3V4z M6,6H5V5h1V6z"
       id="path4"
       style="fill:#0085ca;fill-opacity:1;stroke-width:5;stroke-miterlimit:4;stroke-dasharray:none" /><path
       d="M7,8H4v3h3V8z M6,10H5V9h1V10z"
       id="path6"
       style="fill:#0085ca;fill-opacity:1;stroke-width:5;stroke-miterlimit:4;stroke-dasharray:none" /><path
       d="M7,12H4v3h3V12z M6,14H5v-1h1V14z"
       id="path8"
       style="fill:#0085ca;fill-opacity:1;stroke-width:5;stroke-miterlimit:4;stroke-dasharray:none" /><path
       d="M11,4H8v3h3V4z M10,6H9V5h1V6z"
       id="path10"
       style="fill:#0085ca;fill-opacity:1;stroke-width:5;stroke-miterlimit:4;stroke-dasharray:none" /><path
       d="M11,8H8v3h3V8z M10,10H9V9h1V10z"
       id="path12"
       style="fill:#0085ca;fill-opacity:1;stroke-width:5;stroke-miterlimit:4;stroke-dasharray:none" /><path
       d="M11,12H8v3h3V12z M10,14H9v-1h1V14z"
       id="path14"
       style="fill:#0085ca;fill-opacity:1;stroke-width:5;stroke-miterlimit:4;stroke-dasharray:none" /><path
       d="M20,10h-3v3h3V10z M19,12h-1v-1h1V12z"
       id="path16"
       style="fill:#0085ca;fill-opacity:1;stroke-width:5;stroke-miterlimit:4;stroke-dasharray:none" /><path
       d="M20,14h-3v3h3V14z M19,16h-1v-1h1V16z"
       id="path18"
       style="fill:#0085ca;fill-opacity:1;stroke-width:5;stroke-miterlimit:4;stroke-dasharray:none" /></g></svg>
