<?xml version="1.0" encoding="UTF-8" standalone="no"?>
<svg
   xmlns:dc="http://purl.org/dc/elements/1.1/"
   xmlns:cc="http://creativecommons.org/ns#"
   xmlns:rdf="http://www.w3.org/1999/02/22-rdf-syntax-ns#"
   xmlns:svg="http://www.w3.org/2000/svg"
   xmlns="http://www.w3.org/2000/svg"
   xmlns:sodipodi="http://sodipodi.sourceforge.net/DTD/sodipodi-0.dtd"
   xmlns:inkscape="http://www.inkscape.org/namespaces/inkscape"
   version="1.0"
   width="512.000000pt"
   height="512.000000pt"
   viewBox="0 0 512.000000 512.000000"
   preserveAspectRatio="xMidYMid meet"
   id="svg12"
   sodipodi:docname="heat.svg"
   inkscape:version="1.0.2-2 (e86c870879, 2021-01-15)">
  <metadata
     id="metadata18">
    <rdf:RDF>
      <cc:Work
         rdf:about="">
        <dc:format>image/svg+xml</dc:format>
        <dc:type
           rdf:resource="http://purl.org/dc/dcmitype/StillImage" />
        <dc:title></dc:title>
      </cc:Work>
    </rdf:RDF>
  </metadata>
  <defs
     id="defs16" />
  <sodipodi:namedview
     pagecolor="#ffffff"
     bordercolor="#666666"
     borderopacity="1"
     objecttolerance="10"
     gridtolerance="10"
     guidetolerance="10"
     inkscape:pageopacity="0"
     inkscape:pageshadow="2"
     inkscape:window-width="1920"
     inkscape:window-height="1017"
     id="namedview14"
     showgrid="false"
     inkscape:zoom="0.84680341"
     inkscape:cx="280.03196"
     inkscape:cy="353.01285"
     inkscape:window-x="-8"
     inkscape:window-y="-8"
     inkscape:window-maximized="1"
     inkscape:current-layer="svg12" />
  <g
     transform="translate(0.000000,512.000000) scale(0.100000,-0.100000)"
     fill="#000000"
     stroke="none"
     id="g10"
     style="fill:#0085ca;fill-opacity:1">
    <path
       d="M866 5105 c-65 -35 -176 -151 -243 -255 -57 -88 -121 -228 -144 -315 -31 -122 -29 -299 5 -429 48 -187 141 -344 327 -553 157 -178 229 -287 272 -415 78 -228 1 -452 -214 -623 -84 -68 -103 -100 -97 -170 11 -130 136 -189 254 -120 79 46 233 207 291 305 90 152 123 266 123 427 0 105 -15 198 -48 293 -46 133 -151 307 -262 435 -227 262 -270 325 -314 456 -74 222 -16 443 168 636 99 105 106 117 106 181 0 54 -25 100 -72 135 -35 26 -114 33 -152 12z"
       id="path2"
       style="fill:#0085ca;fill-opacity:1" />
    <path
       d="M2122 5105 c-80 -35 -232 -215 -306 -364 -121 -242 -138 -457 -55 -707 53 -158 139 -294 304 -479 114 -128 149 -174 198 -257 116 -197 137 -360 70 -523 -39 -92 -92 -155 -256 -302 -122 -110 -11 -315 148 -272 101 28 264 186 363 354 136 230 145 507 27 777 -61 139 -146 264 -286 418 -157 175 -251 329 -278 458 -41 199 29 406 198 580 41 43 80 91 87 109 33 77 0 162 -76 201 -51 25 -91 27 -138 7z"
       id="path4"
       style="fill:#0085ca;fill-opacity:1" />
    <path
       d="M3370 5100 c-46 -24 -175 -158 -230 -240 -52 -77 -121 -222 -146 -310 -15 -52 -19 -97 -18 -225 0 -145 3 -168 28 -249 31 -104 110 -262 171 -345 23 -31 93 -115 155 -186 187 -213 266 -355 292 -520 30 -192 -66 -378 -276 -539 -123 -93 -59 -290 94 -290 67 0 128 39 245 158 164 166 246 331 264 529 28 296 -84 554 -387 894 -108 122 -163 201 -207 297 -78 172 -80 326 -7 489 40 88 82 147 168 238 82 87 100 128 83 194 -27 101 -139 153 -229 105z"
       id="path6"
       style="fill:#0085ca;fill-opacity:1" />
    <path
       d="M331 2014 c-217 -58 -358 -273 -324 -495 24 -149 108 -269 239 -335 l77 -39 1838 -5 1838 -5 28 -21 c41 -30 54 -62 49 -114 -3 -34 -11 -51 -35 -72 l-31 -28 -1763 0 c-1066 0 -1796 -4 -1847 -10 -208 -23 -360 -171 -393 -379 -35 -232 124 -458 352 -501 35 -6 850 -10 2340 -10 l2287 0 44 22 c50 25 90 89 90 142 0 47 -37 113 -78 138 l-37 23 -2308 5 -2309 5 -29 33 c-56 62 -29 170 48 191 26 8 603 11 1828 11 1940 0 1837 -3 1943 55 154 84 249 278 222 455 -14 87 -68 195 -127 254 -27 26 -81 64 -122 84 l-75 37 -1835 5 c-1466 4 -1841 8 -1858 18 -31 17 -53 63 -53 111 0 31 7 49 29 73 l29 33 2309 5 2308 5 37 23 c41 25 78 91 78 138 0 49 -40 116 -85 141 l-40 23 -2305 -1 c-1982 0 -2313 -2 -2359 -15z"
       id="path8"
       style="fill:#0085ca;fill-opacity:1" />
  </g>
</svg>
