<?xml version="1.0" encoding="UTF-8" standalone="no"?>
<svg
   xmlns:dc="http://purl.org/dc/elements/1.1/"
   xmlns:cc="http://creativecommons.org/ns#"
   xmlns:rdf="http://www.w3.org/1999/02/22-rdf-syntax-ns#"
   xmlns:svg="http://www.w3.org/2000/svg"
   xmlns="http://www.w3.org/2000/svg"
   xmlns:sodipodi="http://sodipodi.sourceforge.net/DTD/sodipodi-0.dtd"
   xmlns:inkscape="http://www.inkscape.org/namespaces/inkscape"
   viewBox="0 0 512 512"
   version="1.1"
   id="svg7"
   sodipodi:docname="wall.svg"
   width="512"
   height="512"
   inkscape:version="1.0.2-2 (e86c870879, 2021-01-15)">
  <metadata
     id="metadata13">
    <rdf:RDF>
      <cc:Work
         rdf:about="">
        <dc:format>image/svg+xml</dc:format>
        <dc:type
           rdf:resource="http://purl.org/dc/dcmitype/StillImage" />
        <dc:title></dc:title>
      </cc:Work>
    </rdf:RDF>
  </metadata>
  <defs
     id="defs11" />
  <sodipodi:namedview
     pagecolor="#ffffff"
     bordercolor="#666666"
     borderopacity="1"
     objecttolerance="10"
     gridtolerance="10"
     guidetolerance="10"
     inkscape:pageopacity="0"
     inkscape:pageshadow="2"
     inkscape:window-width="1920"
     inkscape:window-height="1017"
     id="namedview9"
     showgrid="false"
     inkscape:zoom="0.56453561"
     inkscape:cx="135.9914"
     inkscape:cy="7.3862859"
     inkscape:window-x="-8"
     inkscape:window-y="-8"
     inkscape:window-maximized="1"
     inkscape:current-layer="svg7" />
  <g
     data-name="15-Wall"
     id="_15-Wall"
     transform="scale(15.945913)"
     style="fill:#0085ca;fill-opacity:1">
    <path
       d="M 29,0 H 3 A 3,3 0 0 0 0,3 v 26 a 3,3 0 0 0 3,3 h 26 a 3,3 0 0 0 3,-3 V 3 A 3,3 0 0 0 29,0 Z M 2,3 A 1,1 0 0 1 3,2 H 15 V 7 H 2 Z m 20,6 v 6 H 10 V 9 Z M 2,9 h 6 v 6 H 2 Z m 0,8 h 13 v 6 H 2 Z M 8,30 H 3 A 1,1 0 0 1 2,29 v -4 h 6 z m 14,0 H 10 v -5 h 12 z m 8,-1 a 1,1 0 0 1 -1,1 h -5 v -5 h 6 z m 0,-6 H 17 v -6 h 13 z m 0,-8 H 24 V 9 h 6 z M 30,7 H 17 V 2 h 12 a 1,1 0 0 1 1,1 z"
       id="path4"
       style="fill:#0085ca;fill-opacity:1" />
  </g>
</svg>
