<?xml version="1.0" encoding="UTF-8" standalone="no"?>
<!-- Generator: Adobe Illustrator 19.0.0, SVG Export Plug-In . SVG Version: 6.00 Build 0)  -->

<svg
   version="1.1"
   id="Layer_1"
   x="0px"
   y="0px"
   viewBox="0 0 512 512"
   style="enable-background:new 0 0 512 512;"
   xml:space="preserve"
   sodipodi:docname="radiator.svg"
   inkscape:version="1.1.1 (3bf5ae0d25, 2021-09-20)"
   xmlns:inkscape="http://www.inkscape.org/namespaces/inkscape"
   xmlns:sodipodi="http://sodipodi.sourceforge.net/DTD/sodipodi-0.dtd"
   xmlns="http://www.w3.org/2000/svg"
   xmlns:svg="http://www.w3.org/2000/svg"><defs
   id="defs77" /><sodipodi:namedview
   id="namedview75"
   pagecolor="#ffffff"
   bordercolor="#666666"
   borderopacity="1.0"
   inkscape:pageshadow="2"
   inkscape:pageopacity="0.0"
   inkscape:pagecheckerboard="0"
   showgrid="false"
   inkscape:zoom="0.78320313"
   inkscape:cx="283.45137"
   inkscape:cy="353.03741"
   inkscape:window-width="1920"
   inkscape:window-height="991"
   inkscape:window-x="-9"
   inkscape:window-y="-9"
   inkscape:window-maximized="1"
   inkscape:current-layer="Layer_1" />
<g
   id="g6"
   style="fill:#0085ca;fill-opacity:1">
	<g
   id="g4"
   style="fill:#0085ca;fill-opacity:1">
		<rect
   x="495.837"
   y="123.85"
   width="15.642"
   height="40.668"
   id="rect2"
   style="fill:#0085ca;fill-opacity:1" />
	</g>
</g>
<g
   id="g12"
   style="fill:#0085ca;fill-opacity:1">
	<g
   id="g10"
   style="fill:#0085ca;fill-opacity:1">
		<path
   d="M487.495,171.813v-56.31h-15.642v8.342h-64l0.079-79.705h-95.707v79.705h-8.376V44.141h-94.841l-0.158,79.705h-9.075    V44.141h-95.278v79.705h-8.798V44.141H0v439.948h95.699v-79.739h8.798v79.739h95.278v-79.739h8.518l-0.159,79.739h95.714v-79.739    h8.376v79.739h95.27l0.079-79.739h64.281v8.342h15.642v-56.31h-15.642v8.342h-64.24l0.2-201.255h64.04v8.342H487.495z     M80.058,84.22H64.13v15.642h15.927v8.342H64.13v15.642h15.927v280.505H64.13v15.642h15.927v8.342H64.13v15.642h15.927v24.472    H15.642v-24.472h16.163v-15.642H15.642v-8.342h16.163v-15.642H15.642V123.846h16.163v-15.642H15.642v-8.342h16.163V84.22H15.642    V59.783h64.416V84.22z M104.497,388.709h-8.798v-8.342h8.798V388.709z M104.497,364.725h-8.798V163.471h8.798V364.725z     M104.497,147.829h-8.798v-8.342h8.798V147.829z M184.133,84.22h-15.726v15.642h15.726v8.342h-15.726v15.642h15.726v280.505    h-15.726v15.642h15.726v8.342h-15.726v15.642h15.726v24.472h-63.995v-24.472h15.943v-15.642h-15.943v-8.342h15.943v-15.642    h-15.943V123.846h15.943v-15.642h-15.943v-8.342h15.943V84.22h-15.943V59.783h63.995V84.22z M208.325,388.709h-8.55v-8.342h8.566    L208.325,388.709z M208.372,364.725h-8.598V163.471h0.001h8.996L208.372,364.725z M208.802,147.829h-9.027v-8.342h9.044    L208.802,147.829z M288.208,84.22h-16.567v15.642h16.567v8.342h-16.567v15.642h16.567v280.505h-16.567v15.642h16.567v8.342    h-16.567v15.642h16.567v24.472h-64.4l0.049-24.472h16.502v-15.642h-16.472l0.017-8.342h16.455v-15.642h-16.424l0.557-280.505    h15.867v-15.642h-15.836l0.017-8.342h15.819V84.22h-15.788l0.049-24.437h63.588V84.22z M312.225,388.709h-8.376v-8.342h8.376    V388.709z M312.225,364.725h-8.376V163.471h8.376V364.725z M312.225,147.829h-8.376v-8.342h8.376V147.829z M392.251,84.22h-16.333    v15.642h16.316l-0.008,8.342h-16.308v15.642h16.293l-0.278,280.505h-16.015v15.642h15.999l-0.008,8.342h-15.991v15.642h15.975    l-0.024,24.472h-64.003v-24.472h15.726v-15.642h-15.726v-8.342h15.726v-15.642h-15.726V123.846h15.726v-15.642h-15.726v-8.342    h15.726V84.22h-15.726V59.783h64.409L392.251,84.22z M471.853,380.367v8.342H407.59l0.008-8.342H471.853z M407.829,147.829    l0.008-8.342h64.016v8.342H407.829z"
   id="path8"
   style="fill:#0085ca;fill-opacity:1" />
	</g>
</g>
<g
   id="g18"
   style="fill:#0085ca;fill-opacity:1">
	<g
   id="g16"
   style="fill:#0085ca;fill-opacity:1">
		<rect
   x="495.837"
   y="363.687"
   width="15.642"
   height="40.668"
   id="rect14"
   style="fill:#0085ca;fill-opacity:1" />
	</g>
</g>
<g
   id="g24"
   style="fill:#0085ca;fill-opacity:1">
	<g
   id="g22"
   style="fill:#0085ca;fill-opacity:1">
		<polygon
   points="456.212,316.758 456.212,332.4 471.853,332.4 471.853,348.041 487.495,348.041 487.495,332.4 504.179,332.4     504.179,316.758   "
   id="polygon20"
   style="fill:#0085ca;fill-opacity:1" />
	</g>
</g>
<g
   id="g30"
   style="fill:#0085ca;fill-opacity:1">
	<g
   id="g28"
   style="fill:#0085ca;fill-opacity:1">
		<rect
   x="471.853"
   y="291.736"
   width="15.642"
   height="16.684"
   id="rect26"
   style="fill:#0085ca;fill-opacity:1" />
	</g>
</g>
<g
   id="g36"
   style="fill:#0085ca;fill-opacity:1">
	<g
   id="g34"
   style="fill:#0085ca;fill-opacity:1">
		<path
   d="M487.495,44.141V27.911h-15.642v16.231h-23.53v63.676H512V44.141H487.495z M496.358,92.176h-32.394V59.783h32.394V92.176z    "
   id="path32"
   style="fill:#0085ca;fill-opacity:1" />
	</g>
</g>
<g
   id="g42"
   style="fill:#0085ca;fill-opacity:1">
	<g
   id="g40"
   style="fill:#0085ca;fill-opacity:1">
		<rect
   x="471.853"
   y="68.579"
   width="16.684"
   height="15.642"
   id="rect38"
   style="fill:#0085ca;fill-opacity:1" />
	</g>
</g>
<g
   id="g44">
</g>
<g
   id="g46">
</g>
<g
   id="g48">
</g>
<g
   id="g50">
</g>
<g
   id="g52">
</g>
<g
   id="g54">
</g>
<g
   id="g56">
</g>
<g
   id="g58">
</g>
<g
   id="g60">
</g>
<g
   id="g62">
</g>
<g
   id="g64">
</g>
<g
   id="g66">
</g>
<g
   id="g68">
</g>
<g
   id="g70">
</g>
<g
   id="g72">
</g>
</svg>
