<?xml version="1.0" encoding="UTF-8" standalone="no"?>
<svg
   version="1.0"
   width="512.000000pt"
   height="512.000000pt"
   viewBox="0 0 512.000000 512.000000"
   preserveAspectRatio="xMidYMid meet"
   id="svg14"
   sodipodi:docname="soundproof.svg"
   inkscape:version="1.1.1 (3bf5ae0d25, 2021-09-20)"
   xmlns:inkscape="http://www.inkscape.org/namespaces/inkscape"
   xmlns:sodipodi="http://sodipodi.sourceforge.net/DTD/sodipodi-0.dtd"
   xmlns="http://www.w3.org/2000/svg"
   xmlns:svg="http://www.w3.org/2000/svg">
  <defs
     id="defs18" />
  <sodipodi:namedview
     id="namedview16"
     pagecolor="#ffffff"
     bordercolor="#666666"
     borderopacity="1.0"
     inkscape:pageshadow="2"
     inkscape:pageopacity="0.0"
     inkscape:pagecheckerboard="0"
     inkscape:document-units="pt"
     showgrid="false"
     inkscape:zoom="0.58740234"
     inkscape:cx="597.54613"
     inkscape:cy="474.12136"
     inkscape:window-width="1920"
     inkscape:window-height="991"
     inkscape:window-x="-9"
     inkscape:window-y="-9"
     inkscape:window-maximized="1"
     inkscape:current-layer="g12" />
  <g
     transform="translate(0.000000,512.000000) scale(0.100000,-0.100000)"
     fill="#000000"
     stroke="none"
     id="g12">
    <path
       d="m 3734.5924,5098 c -35.4515,-18 -73.1187,-58 -172.826,-183 -142.9138,-180 -179.4731,-250 -197.1989,-375 -18.8336,-138 11.0786,-234 132.9431,-434 23.2651,-38 29.9122,-61 29.9122,-111 0,-57 -5.5393,-70 -62.0401,-161 -79.7658,-127 -101.923,-193 -101.923,-314 -1.1079,-116 26.5886,-203 94.168,-305 94.168,-140 95.2759,-204 8.8629,-336 -76.4423,-117 -104.1388,-200 -104.1388,-319 0,-119 27.6965,-202 104.1388,-319 86.413,-132 85.3051,-196 -8.8629,-336 -67.5794,-102 -95.2759,-189 -94.168,-305 0,-120 22.1572,-187 98.5994,-310 32.1279,-52 62.0401,-111 65.3637,-132 9.9707,-50 -11.0786,-124 -49.8536,-180 -118.5409,-166 -148.4531,-344 -85.3052,-513 12.1865,-33 31.0201,-75 43.2065,-93 11.0786,-18 21.0493,-35 21.0493,-38 0,-2 -746.6969,-4 -1658.4648,-4 H 138.48237 L 94.168008,307 C 42.098639,280 0,219 0,170 0,111 42.098639,48 99.707303,22 L 149.56095,0 2577.9877,2 l 2428.4268,3 31.02,21 c 109.6781,73 109.6781,205 1.1079,277 -19.9415,14 -54.2851,22 -97.4916,25 l -66.4715,4 -2.2158,2337 -3.3235,2337 -27.6965,37 c -15.51,21 -47.6379,46 -73.1187,57 -42.0986,19 -68.6872,20 -516.2623,20 -467.5164,0 -470.84,0 -517.3701,-22 z M 4508.9858,2566 V 343 l -40.9908,-7 c -23.265,-3 -157.3159,-6 -299.1219,-6 h -255.9154 l -84.1973,106 c -128.5116,164 -135.1588,232 -34.3436,379 135.1588,198 136.2667,411 1.1079,615 -56.5008,85 -78.658,153 -67.5794,208 3.3236,20 33.2357,80 66.4715,132 77.5501,124 98.5995,190 98.5995,310 0,119 -26.5887,202 -103.0309,318 -29.9122,46 -56.5008,101 -60.9323,122 -11.0786,65 3.3236,114 60.9323,202 76.4422,115 103.0309,199 103.0309,318 0,119 -26.5887,203 -103.0309,319 -29.9122,46 -58.7165,101 -62.0401,123 -11.0786,56 11.0786,123 67.5794,208 89.7365,136 119.6487,275 88.6287,412 -22.1572,95 -40.9908,136 -95.2759,213 -95.2759,134 -86.413,209 39.8829,370 l 84.1973,105 h 298.0141 298.014 z"
       id="path2"
       style="stroke-width:1.05255;fill:#0085ca;fill-opacity:1" />
    <path
       d="m 1754.8485,4061 c -60.9322,-25 -96.3837,-71 -101.923,-136 -5.5393,-65 9.9707,-94 96.3837,-177 176.1496,-170 343.4363,-427 419.8786,-643 152.8845,-434 120.7566,-893 -93.0602,-1295 -88.6287,-167 -192.7674,-309 -310.2005,-420 -89.7365,-86 -115.2173,-126 -115.2173,-179 0,-84 62.0401,-152 153.9924,-166 67.5794,-10 124.0802,17 212.7089,104 316.8477,305 520.6937,691 592.7045,1121 23.2651,137 26.5886,422 5.5393,550 -60.9322,380 -212.7089,712 -455.33,1000 -98.5994,117 -211.6011,221 -260.3468,241 -56.5009,23 -88.6288,23 -145.1296,0 z"
       id="path4"
       style="stroke-width:1.05255;fill:#0085ca;fill-opacity:1" />
    <path
       d="m 1152.1733,3478 c -57.6087,-36 -88.6287,-83 -88.6287,-137 0,-57 15.51,-85 90.8444,-161 136.2666,-139 228.2189,-326 253.6997,-514 34.3436,-248 -59.8244,-524 -241.5133,-713 -93.0601,-96 -103.0308,-113 -103.0308,-169 0,-59 28.8043,-105 88.6287,-142 53.1772,-33 146.2374,-28 202.7382,11 91.9523,63 247.0525,268 317.9555,417 169.5024,362 136.2666,792 -87.5209,1134 -62.0401,95 -177.2574,227 -230.4346,263 -56.5008,39 -149.561,44 -202.7382,11 z"
       id="path6"
       style="stroke-width:1.05255;fill:#0085ca;fill-opacity:1" />
    <path
       d="m 644.77389,2978 c -48.74579,-15 -109.67803,-78 -119.64876,-123 -9.97073,-50 8.86287,-100 60.93224,-162 72.01083,-87 74.22655,-178 4.43144,-260 -85.30514,-100 -89.73658,-177 -15.51003,-244 78.65798,-71 185.01244,-72 262.56257,-2 167.28665,150 214.92465,390 117.43304,593 -28.80433,60 -114.10947,161 -155.10025,182 -42.09864,23 -109.67803,30 -155.10025,16 z"
       id="path8"
       style="stroke-width:1.05255;fill:#0085ca;fill-opacity:1" />
  </g>
</svg>
