<?xml version="1.0" encoding="UTF-8" standalone="no"?>
<svg
   xmlns:dc="http://purl.org/dc/elements/1.1/"
   xmlns:cc="http://creativecommons.org/ns#"
   xmlns:rdf="http://www.w3.org/1999/02/22-rdf-syntax-ns#"
   xmlns:svg="http://www.w3.org/2000/svg"
   xmlns="http://www.w3.org/2000/svg"
   xmlns:sodipodi="http://sodipodi.sourceforge.net/DTD/sodipodi-0.dtd"
   xmlns:inkscape="http://www.inkscape.org/namespaces/inkscape"
   height="256"
   id="svg7330"
   version="1.1"
   width="256"
   sodipodi:docname="vk.svg"
   inkscape:version="1.0.2-2 (e86c870879, 2021-01-15)">
  <metadata
     id="metadata8">
    <rdf:RDF>
      <cc:Work
         rdf:about="">
        <dc:format>image/svg+xml</dc:format>
        <dc:type
           rdf:resource="http://purl.org/dc/dcmitype/StillImage" />
        <dc:title></dc:title>
      </cc:Work>
    </rdf:RDF>
  </metadata>
  <sodipodi:namedview
     pagecolor="#ffffff"
     bordercolor="#666666"
     borderopacity="1"
     objecttolerance="10"
     gridtolerance="10"
     guidetolerance="10"
     inkscape:pageopacity="0"
     inkscape:pageshadow="2"
     inkscape:window-width="1920"
     inkscape:window-height="1017"
     id="namedview6"
     showgrid="false"
     inkscape:zoom="2.3406049"
     inkscape:cx="125.29961"
     inkscape:cy="156.12949"
     inkscape:window-x="-8"
     inkscape:window-y="-8"
     inkscape:window-maximized="1"
     inkscape:current-layer="layer1" />
  <defs
     id="defs7332" />
  <g
     id="layer1"
     transform="translate(-305.75,-101.61222)">
    <path
       d="m 334.55346,102.89394 c -15.24704,0 -27.52174,12.2747 -27.52174,27.52174 v 199.07394 c 0,15.24705 12.2747,27.52175 27.52174,27.52175 h 199.07396 c 15.24705,0 27.52175,-12.2747 27.52175,-27.52175 V 130.41568 c 0,-15.24704 -12.2747,-27.52174 -27.52175,-27.52174 z m 106.58943,67.60027 c 2.31418,-0.0111 5.32284,0.40127 7.22447,1.7201 1.40182,0.97223 3.24555,2.0974 3.2682,6.47908 0.0741,14.33493 -0.0992,26.82164 0.11468,41.45463 0.27936,3.04587 2.25845,4.30942 4.12826,4.30028 1.86982,-0.009 4.01497,-1.17801 5.61901,-2.75218 8.68695,-8.52881 18.69479,-29.04158 24.82691,-42.4867 2.28838,-5.01744 5.98121,-4.6955 10.14864,-4.70163 13.95261,-0.0206 19.60244,0.15596 32.68208,0.22936 2.39519,0.0128 4.48246,2.03609 5.16033,3.49755 0.58534,1.26201 1.00495,4.91785 -2.17881,10.09131 -9.79441,15.91541 -18.79924,28.73184 -29.70055,43.86277 -0.68758,0.95437 -1.34093,2.09215 -1.31875,3.26821 0.0204,1.07544 0.57767,2.14461 1.31875,2.92419 9.7197,10.22472 19.86571,20.5136 29.81523,31.76468 2.93145,3.31493 1.0909,8.4289 0.28668,9.86196 -0.60924,1.08562 -3.3611,3.88405 -5.21766,3.89891 -6.76131,0.0541 -6.77835,0 -35.09023,0 -4.1927,0 -5.86639,-1.22463 -8.08451,-3.55489 -9.81622,-10.31249 -8.60659,-9.06676 -19.37989,-20.58397 -1.3996,-1.49624 -4.17369,-3.37642 -6.82311,-2.17881 -2.24883,1.01655 -6.36441,2.51653 -6.36441,6.65109 0,4.41078 0,10.07492 0,14.44891 0,2.62421 -4.1177,4.58697 -6.59374,4.58697 -5.84497,0 -10.50997,0 -19.26522,0 -9.06952,0 -16.91999,-2.18698 -21.27203,-4.30027 -18.74967,-9.10467 -29.89664,-21.78488 -42.08532,-42.88806 -10.40803,-18.02019 -19.46454,-35.76189 -28.3818,-54.35545 -0.99626,-2.07732 -1.70419,-6.65108 5.73369,-6.65108 7.85792,0 15.22716,-0.17193 27.17773,-0.17193 3.50826,0 5.69034,0.70638 7.16712,1.77745 1.47678,1.07105 2.20307,2.49882 2.92418,3.84158 14.86786,27.68478 14.90166,29.37915 25.51495,43.1174 0.99642,1.2898 2.43333,1.48498 3.49756,1.49076 1.31508,0.007 2.53136,-0.20634 3.55489,-1.03206 2.14867,-1.73339 2.75217,-3.5902 2.75217,-6.24973 0,-9.31965 0,-16.2824 0,-27.98044 0,-3.20829 -2.17326,-7.9643 -4.58696,-9.4606 -2.50057,-1.43941 -6.61061,-2.86553 -6.47906,-4.6443 0.14383,-1.9455 4.6712,-5.21766 12.72879,-5.21766 9.63371,0 16.46124,-0.007 27.17773,-0.0572 z"
       id="rect3787"
       style="fill:#0085ca;fill-opacity:1;stroke:none;stroke-width:0.508235" />
  </g>
</svg>
