<?xml version="1.0" encoding="UTF-8" standalone="no"?>
<svg
   xmlns:dc="http://purl.org/dc/elements/1.1/"
   xmlns:cc="http://creativecommons.org/ns#"
   xmlns:rdf="http://www.w3.org/1999/02/22-rdf-syntax-ns#"
   xmlns:svg="http://www.w3.org/2000/svg"
   xmlns="http://www.w3.org/2000/svg"
   xmlns:sodipodi="http://sodipodi.sourceforge.net/DTD/sodipodi-0.dtd"
   xmlns:inkscape="http://www.inkscape.org/namespaces/inkscape"
   version="1.0"
   width="476.000000pt"
   height="738.000000pt"
   viewBox="0 0 476.000000 738.000000"
   preserveAspectRatio="xMidYMid meet"
   id="svg6"
   sodipodi:docname="Без-имени.svg"
   inkscape:version="1.0.2-2 (e86c870879, 2021-01-15)">
  <metadata
     id="metadata12">
    <rdf:RDF>
      <cc:Work
         rdf:about="">
        <dc:format>image/svg+xml</dc:format>
        <dc:type
           rdf:resource="http://purl.org/dc/dcmitype/StillImage" />
        <dc:title></dc:title>
      </cc:Work>
    </rdf:RDF>
  </metadata>
  <defs
     id="defs10" />
  <sodipodi:namedview
     pagecolor="#ffffff"
     bordercolor="#666666"
     borderopacity="1"
     objecttolerance="10"
     gridtolerance="10"
     guidetolerance="10"
     inkscape:pageopacity="0"
     inkscape:pageshadow="2"
     inkscape:window-width="1920"
     inkscape:window-height="1001"
     id="namedview8"
     showgrid="false"
     inkscape:zoom="0.20367946"
     inkscape:cx="-845.75513"
     inkscape:cy="967.55711"
     inkscape:window-x="-9"
     inkscape:window-y="-9"
     inkscape:window-maximized="1"
     inkscape:current-layer="svg6" />
  <g
     transform="matrix(0.15363406,0,0,-0.15363406,-167.94676,871.01619)"
     fill="#000000"
     stroke="none"
     id="g4"
     style="fill:#0085ca;fill-opacity:1">
    <path
       d="m 2038,5579 c -196,-8 -432,-28 -681,-56 l -148,-17 6,-100 c 3,-56 46,-1091 96,-2300 49,-1210 91,-2201 94,-2204 2,-2 72,-1 154,3 l 151,7 v 44 c 0,57 -44,1407 -71,2168 -15,439 -17,591 -9,596 28,18 382,58 615,70 408,22 847,-25 1548,-164 155,-30 216,-39 213,-30 -3,7 -139,237 -302,510 -243,409 -294,500 -282,508 33,25 688,599 686,602 -9,8 -541,173 -692,214 -349,95 -577,134 -882,150 -206,11 -221,11 -496,-1 z"
       id="path2"
       style="fill:#0085ca;fill-opacity:1" />
  </g>
</svg>
