<?xml version="1.0" encoding="UTF-8" standalone="no"?>
<svg
   xmlns:dc="http://purl.org/dc/elements/1.1/"
   xmlns:cc="http://creativecommons.org/ns#"
   xmlns:rdf="http://www.w3.org/1999/02/22-rdf-syntax-ns#"
   xmlns:svg="http://www.w3.org/2000/svg"
   xmlns="http://www.w3.org/2000/svg"
   xmlns:sodipodi="http://sodipodi.sourceforge.net/DTD/sodipodi-0.dtd"
   xmlns:inkscape="http://www.inkscape.org/namespaces/inkscape"
   viewBox="0 0 256 256"
   height="256"
   width="256"
   xml:space="preserve"
   id="svg2"
   version="1.1"
   sodipodi:docname="domdf-logo.svg"
   inkscape:version="1.0.2-2 (e86c870879, 2021-01-15)"><sodipodi:namedview
     pagecolor="#ffff3b"
     bordercolor="#666666"
     borderopacity="1"
     objecttolerance="10"
     gridtolerance="10"
     guidetolerance="10"
     inkscape:pageopacity="0"
     inkscape:pageshadow="2"
     inkscape:window-width="1920"
     inkscape:window-height="1017"
     id="namedview32"
     showgrid="false"
     inkscape:zoom="1.2768203"
     inkscape:cx="167.95475"
     inkscape:cy="106.80602"
     inkscape:window-x="-8"
     inkscape:window-y="-8"
     inkscape:window-maximized="1"
     inkscape:current-layer="g12" /><metadata
     id="metadata8"><rdf:RDF><cc:Work
         rdf:about=""><dc:format>image/svg+xml</dc:format><dc:type
           rdf:resource="http://purl.org/dc/dcmitype/StillImage" /><dc:title></dc:title></cc:Work></rdf:RDF></metadata><defs
     id="defs6" /><g
     transform="matrix(1.3333333,0,0,-1.3333333,0,312.66667)"
     id="g10"><g
       transform="scale(0.1)"
       id="g12"><path
         id="path14"
         style="fill:#2c3e49;fill-opacity:1;fill-rule:nonzero;stroke:none;stroke-width:1.43392"
         d="M 919.02309,1437.3765 H 711.68171 v 761.6962 h 207.34138 z m 113.20771,870.1289 H 598.40234 v -978.705 h 433.82846 v 978.705" /><path
         id="path16"
         style="fill:#2c3e49;fill-opacity:1;fill-rule:nonzero;stroke:none;stroke-width:1.43392"
         d="M 53.604591,1114.0858 H 1897.6421 v 108.1316 H 53.604591 v -108.1316" /><path
         id="path18"
         style="fill:#2c3e49;fill-opacity:1;fill-rule:nonzero;stroke:none;stroke-width:1.43392"
         d="M 166.46382,897.97886 H 699.48195 V 691.55661 H 166.46382 Z M 53.604591,461.0374 H 166.46382 V 583.55262 H 812.36985 V 1006.0818 H 53.604591 V 461.0374" /><path
         id="path20"
         style="fill:#2c3e49;fill-opacity:1;fill-rule:nonzero;stroke:none;stroke-width:1.43392"
         d="m 1256.4809,1981.9204 207.3299,217.1236 v -870.2293 h 113.2077 v 653.1487 l 207.3012,217.0089 v -870.1576 h 113.3224 v 978.6907 h -159.1216 l -161.502,-168.5712 v 168.5712 h -159.05 l -274.8387,-284.4746 v -694.2161 h 113.3511 v 653.1057" /><path
         id="path22"
         style="fill:#2c3e49;fill-opacity:1;fill-rule:nonzero;stroke:none;stroke-width:1.43392"
         d="M 1035.6865,897.97886 H 1350.173 V 691.55661 h -314.4865 z m 432.2397,0 h 316.8811 V 691.55661 H 1467.9262 Z M 922.76992,583.55262 H 1350.1873 V 461.0374 h 117.7389 v 122.51522 h 429.7303 V 1006.0818 H 922.76992 V 583.55262" /><path
         id="path24"
         style="fill:#2c3e49;fill-opacity:1;fill-rule:nonzero;stroke:none;stroke-width:1.43392"
         d="m 166.93414,1981.9204 207.25679,217.0519 V 1437.3621 H 166.93414 Z m 207.25679,-653.1057 h 113.29084 v 978.6907 H 328.41746 L 53.610327,2023.0308 V 1437.3621 1328.8147 H 166.93414 374.19093" /><path
         id="path26"
         style="fill:#2c3e49;fill-opacity:1;fill-rule:nonzero;stroke:none;stroke-width:1.43392"
         d="M 53.604591,1114.0858 H 1897.6421 v 108.1316 H 53.604591 v -108.1316" /><path
         id="path28"
         style="fill:#2c3e49;fill-opacity:1;fill-rule:nonzero;stroke:none;stroke-width:1.43392"
         d="M 166.46382,897.97886 H 699.48195 V 691.55661 H 166.46382 Z M 53.604591,461.0374 H 166.46382 V 583.55262 H 812.36985 V 1006.0818 H 53.604591 V 461.0374" /><path
         id="path30"
         style="fill:#2c3e49;fill-opacity:1;fill-rule:nonzero;stroke:none;stroke-width:1.43392"
         d="M 1035.6865,897.97886 H 1350.173 V 691.55661 h -314.4865 z m 432.2397,0 h 316.8811 V 691.55661 H 1467.9262 Z M 922.76992,583.55262 H 1350.1873 V 461.0374 h 117.7389 v 122.51522 h 429.7303 V 1006.0818 H 922.76992 V 583.55262" /><path
         id="path32"
         style="fill:#2c3e49;fill-opacity:1;fill-rule:nonzero;stroke:none;stroke-width:1.43392"
         d="M 919.02309,1437.3765 H 711.68171 v 761.6962 h 207.34138 z m 113.20771,870.1289 H 598.40234 v -978.705 h 433.82846 v 978.705" /><path
         id="path34"
         style="fill:#2c3e49;fill-opacity:1;fill-rule:nonzero;stroke:none;stroke-width:1.43392"
         d="m 1256.4809,1981.9204 207.3299,217.1236 v -870.2293 h 113.2077 v 653.1487 l 207.3012,217.0089 v -870.1576 h 113.3224 v 978.6907 h -159.1216 l -161.502,-168.5712 v 168.5712 h -159.05 l -274.8387,-284.4746 v -694.2161 h 113.3511 v 653.1057" /><path
         id="path36"
         style="fill:#2c3e49;fill-opacity:1;fill-rule:nonzero;stroke:none;stroke-width:1.43392"
         d="m 166.93414,1981.9204 207.25679,217.0519 V 1437.3621 H 166.93414 Z m 207.25679,-653.1057 h 113.29084 v 978.6907 H 328.41746 L 53.610327,2023.0308 V 1437.3621 1328.8147 H 166.93414 374.19093" /></g></g></svg>
