<?xml version="1.0" encoding="UTF-8" standalone="no"?>
<svg
   xmlns:dc="http://purl.org/dc/elements/1.1/"
   xmlns:cc="http://creativecommons.org/ns#"
   xmlns:rdf="http://www.w3.org/1999/02/22-rdf-syntax-ns#"
   xmlns:svg="http://www.w3.org/2000/svg"
   xmlns="http://www.w3.org/2000/svg"
   xmlns:sodipodi="http://sodipodi.sourceforge.net/DTD/sodipodi-0.dtd"
   xmlns:inkscape="http://www.inkscape.org/namespaces/inkscape"
   viewBox="0 0.01 9.6096932 3.4931219"
   width="256"
   height="93"
   version="1.1"
   id="svg6"
   sodipodi:docname="vtb-logo.svg"
   inkscape:version="1.0.2-2 (e86c870879, 2021-01-15)">
  <metadata
     id="metadata12">
    <rdf:RDF>
      <cc:Work
         rdf:about="">
        <dc:format>image/svg+xml</dc:format>
        <dc:type
           rdf:resource="http://purl.org/dc/dcmitype/StillImage" />
        <dc:title></dc:title>
      </cc:Work>
    </rdf:RDF>
  </metadata>
  <defs
     id="defs10" />
  <sodipodi:namedview
     pagecolor="#ffffff"
     bordercolor="#666666"
     borderopacity="1"
     objecttolerance="10"
     gridtolerance="10"
     guidetolerance="10"
     inkscape:pageopacity="0"
     inkscape:pageshadow="2"
     inkscape:window-width="1920"
     inkscape:window-height="1017"
     id="namedview8"
     showgrid="false"
     inkscape:zoom="2.8660016"
     inkscape:cx="126.3479"
     inkscape:cy="131.48655"
     inkscape:window-x="-8"
     inkscape:window-y="-8"
     inkscape:window-maximized="1"
     inkscape:current-layer="svg6" />
  <path
     d="M 2.8040682,0.51050656 H 0.54225988 L 0.7051997,0.06242206 h 2.2618084 z m -0.08147,0.22404225 H 0.4597716 L 0.29683179,1.1826334 H 2.5586402 Z M 2.4781887,1.4046388 H 0.21536188 L 0.05242206,1.8527233 H 2.3121937 Z"
     fill="#009fdf"
     id="path2"
     style="stroke-width:0.101838" />
  <path
     d="M 8.1933027,2.973953 H 8.6006523 A 0.35541248,0.35541248 0 0 0 8.9122746,2.8527665 0.38901881,0.38901881 0 0 0 8.9917078,2.5971546 0.3543941,0.3543941 0 0 0 8.8521906,2.2916425 0.40734954,0.40734954 0 0 0 8.5965788,2.2264666 H 8.1933027 Z M 7.6586565,3.4250925 V 0.73454881 H 9.4092411 L 9.2554666,1.1856884 H 8.1933027 v 0.5957487 h 0.4328089 c 0.3493023,0 0.5305728,0.083507 0.6558328,0.190436 A 0.79229486,0.79229486 0 0 1 9.5477402,2.6093751 0.77294576,0.77294576 0 0 1 9.2310256,3.2753916 C 9.062994,3.3914863 8.8868153,3.4240742 8.5283477,3.4240742 Z m -1.5499651,0 V 1.1846701 H 5.3306537 V 0.73454881 H 7.4906248 L 7.3368504,1.1856884 H 6.6484296 V 3.426111 Z M 3.952794,1.8119883 H 4.2583061 A 0.64870414,0.64870414 0 0 0 4.4446686,1.7977312 0.29431004,0.29431004 0 0 0 4.6483433,1.492219 0.27190581,0.27190581 0 0 0 4.4446686,1.1938355 0.74137617,0.74137617 0 0 0 4.2409938,1.1755047 H 3.952794 Z m 0,0.4653969 V 2.9831183 H 4.3255188 A 0.40022093,0.40022093 0 0 0 4.6137186,2.9036852 0.35133899,0.35133899 0 0 0 4.7257397,2.6266874 0.38290857,0.38290857 0 0 0 4.6544536,2.396535 C 4.5750204,2.2946976 4.4772565,2.2753485 4.3102432,2.2753485 Z M 4.8143382,1.9932589 v 0.00916 a 0.94403261,0.94403261 0 0 1 0.2515383,0.1446094 0.63444692,0.63444692 0 0 1 0.2281159,0.5264993 c 0,0.3676329 -0.1955279,0.6334286 -0.5163155,0.7128617 a 1.3717496,1.3717496 0 0 1 -0.3910556,0.03768 H 3.4181477 V 0.73454881 H 4.279692 a 1.5927368,1.5927368 0 0 1 0.4073495,0.0376798 C 4.9986639,0.8557353 5.2033571,1.0706122 5.2033571,1.4097307 A 0.59574871,0.59574871 0 0 1 5.0312519,1.8476315 0.65277764,0.65277764 0 0 1 4.8194301,1.9912221 Z"
     fill="#0a2973"
     id="path4"
     style="stroke-width:0.101838" />
</svg>
