<?xml version="1.0" encoding="UTF-8" standalone="no"?>
<svg
   version="1.0"
   width="512"
   height="512"
   viewBox="0 0 383.99999 383.99999"
   preserveAspectRatio="xMidYMid meet"
   id="svg24"
   sodipodi:docname="concierge.svg"
   inkscape:version="1.1.1 (3bf5ae0d25, 2021-09-20)"
   xmlns:inkscape="http://www.inkscape.org/namespaces/inkscape"
   xmlns:sodipodi="http://sodipodi.sourceforge.net/DTD/sodipodi-0.dtd"
   xmlns="http://www.w3.org/2000/svg"
   xmlns:svg="http://www.w3.org/2000/svg">
  <defs
     id="defs28" />
  <sodipodi:namedview
     id="namedview26"
     pagecolor="#ffffff"
     bordercolor="#666666"
     borderopacity="1.0"
     inkscape:pageshadow="2"
     inkscape:pageopacity="0.0"
     inkscape:pagecheckerboard="0"
     inkscape:document-units="pt"
     showgrid="false"
     units="px"
     inkscape:zoom="0.83071236"
     inkscape:cx="249.18372"
     inkscape:cy="338.86579"
     inkscape:window-width="1920"
     inkscape:window-height="991"
     inkscape:window-x="-9"
     inkscape:window-y="-9"
     inkscape:window-maximized="1"
     inkscape:current-layer="svg24" />
  <g
     transform="matrix(0.07446384,0,0,-0.07446384,3.466174,383.13812)"
     fill="#000000"
     stroke="none"
     id="g22"
     style="fill:#0085ca;fill-opacity:1">
    <path
       d="m 2340,5114 c -482,-41 -798,-133 -957,-277 -105,-96 -98,-48 -101,-704 -3,-548 -3,-572 -21,-578 -11,-3 -39,-28 -64,-54 -99,-106 -99,-261 1,-364 53,-55 106,-80 186,-86 l 69,-6 14,-70 c 29,-139 89,-281 173,-405 51,-75 163,-195 231,-247 l 49,-37 v -112 -111 l -41,-7 c -54,-9 -111,-38 -141,-74 -13,-16 -55,-83 -92,-149 l -68,-120 -332,-98 C 1053,1559 890,1505 855,1487 771,1442 673,1341 627,1253 563,1129 560,1105 560,547 V 49 l 25,-24 c 31,-32 69,-32 100,0 l 25,24 v 493 c 0,527 2,554 51,650 28,55 113,138 169,165 45,22 715,223 743,223 15,0 147,-59 147,-66 0,-2 -67,-37 -148,-78 -213,-107 -300,-194 -361,-360 l -26,-71 -3,-459 c -2,-253 -1,-470 3,-483 8,-33 41,-63 69,-63 13,0 35,9 50,21 l 26,20 v 438 c 0,251 4,461 10,492 16,84 64,171 123,224 36,33 113,78 252,147 l 199,100 116,-26 c 185,-42 255,-50 440,-49 271,1 472,43 720,151 69,29 134,56 146,59 24,6 688,-188 754,-220 56,-27 141,-110 169,-165 49,-96 51,-123 51,-650 V 49 l 25,-24 c 31,-32 69,-32 100,0 l 25,24 v 498 c 0,558 -3,582 -67,706 -46,89 -144,189 -228,234 -35,18 -199,72 -391,129 l -332,97 -68,120 c -37,66 -79,133 -92,149 -30,36 -87,65 -141,74 l -41,7 v 111 112 l 49,37 c 197,150 354,406 405,657 l 13,65 69,6 c 83,7 136,32 188,89 98,108 98,250 1,358 -25,28 -55,54 -65,57 -20,6 -20,19 -20,558 0,374 -4,565 -11,592 -51,183 -369,329 -849,390 -118,15 -539,28 -640,19 z m 630,-169 c 321,-43 585,-132 681,-231 l 34,-35 3,-140 4,-139 H 2560 1428 l 4,141 3,141 46,42 c 115,104 401,195 714,225 61,6 128,13 150,15 87,9 516,-4 625,-19 z m 720,-780 v -85 h -214 c -201,0 -215,-1 -240,-21 -33,-26 -36,-79 -6,-109 16,-16 33,-20 80,-20 h 60 v -150 c 0,-168 8,-201 63,-258 53,-56 81,-65 210,-72 133,-7 158,-18 191,-84 16,-32 17,-44 7,-76 -16,-54 -62,-90 -114,-90 -36,0 -44,4 -59,30 -21,37 -59,53 -93,40 -33,-13 -42,-36 -54,-155 -26,-243 -116,-433 -285,-600 -184,-183 -414,-277 -676,-277 -262,0 -492,94 -676,277 -169,167 -259,357 -285,600 -12,119 -21,142 -54,155 -34,13 -72,-3 -93,-40 -15,-26 -23,-30 -59,-30 -52,0 -98,36 -114,90 -10,32 -9,44 7,76 33,66 58,77 191,84 129,7 157,16 210,72 55,57 63,90 63,258 v 150 h 619 c 575,0 620,1 640,18 33,26 31,79 -3,109 l -27,23 h -775 -774 v 85 85 H 2560 3690 Z M 1600,3790 c 0,-136 -1,-142 -25,-165 -20,-21 -34,-25 -85,-25 h -60 v 165 165 h 85 85 z m 2090,-25 v -165 h -60 c -51,0 -65,4 -85,25 -24,23 -25,29 -25,165 v 140 h 85 85 z M 2187,2151 c 231,-85 515,-85 746,0 45,17 90,33 100,36 15,5 17,-4 17,-85 v -91 l -57,-21 c -160,-60 -373,-88 -540,-71 -119,12 -238,38 -326,71 l -57,21 v 91 c 0,81 2,90 18,85 9,-3 54,-19 99,-36 z m -205,-264 c 352,-156 755,-162 1117,-16 110,44 110,44 146,27 22,-10 115,-151 115,-176 0,-16 -192,-100 -310,-135 -166,-51 -306,-71 -490,-71 -184,0 -324,20 -490,71 -118,35 -310,119 -310,135 0,5 20,44 45,87 61,106 87,118 177,78 z"
       id="path2"
       style="fill:#0085ca;fill-opacity:1" />
    <path
       d="m 1954,3737 c -35,-31 -38,-82 -5,-109 19,-15 41,-18 132,-18 96,0 111,2 129,20 30,30 27,83 -6,109 -23,18 -41,21 -125,21 -88,0 -101,-2 -125,-23 z"
       id="path4"
       style="fill:#0085ca;fill-opacity:1" />
    <path
       d="m 2916,3739 c -33,-26 -36,-79 -6,-109 18,-18 33,-20 129,-20 91,0 113,3 132,18 33,27 30,78 -5,109 -24,21 -37,23 -125,23 -84,0 -102,-3 -125,-21 z"
       id="path6"
       style="fill:#0085ca;fill-opacity:1" />
    <path
       d="m 2034,3497 c -27,-24 -29,-30 -29,-97 0,-63 3,-74 24,-91 30,-25 76,-24 101,1 28,28 29,158 3,183 -33,29 -68,31 -99,4 z"
       id="path8"
       style="fill:#0085ca;fill-opacity:1" />
    <path
       d="m 3020,3513 c -41,-15 -50,-35 -50,-110 0,-60 4,-77 20,-93 25,-25 71,-26 101,-1 21,17 24,28 24,91 0,66 -2,74 -28,96 -28,24 -39,27 -67,17 z"
       id="path10"
       style="fill:#0085ca;fill-opacity:1" />
    <path
       d="m 2175,3070 c -38,-15 -49,-39 -47,-99 5,-106 89,-239 189,-298 144,-84 342,-84 486,0 93,55 169,166 186,274 11,67 0,100 -39,120 -29,15 -740,18 -775,3 z m 655,-148 c 0,-20 -62,-93 -97,-115 -57,-36 -99,-47 -173,-47 -74,0 -116,11 -173,47 -35,22 -97,95 -97,115 0,4 122,8 270,8 149,0 270,-4 270,-8 z"
       id="path12"
       style="fill:#0085ca;fill-opacity:1" />
    <path
       d="m 1637,939 c -46,-27 -41,-105 9,-128 35,-16 48,-14 78,10 71,56 -8,164 -87,118 z"
       id="path14"
       style="fill:#0085ca;fill-opacity:1" />
    <path
       d="m 2970,932 c -19,-9 -45,-32 -57,-51 -21,-31 -23,-45 -23,-164 0,-152 12,-181 84,-217 42,-20 55,-21 403,-18 l 360,3 35,27 c 56,43 71,95 66,227 -4,121 -13,145 -78,189 -33,22 -36,22 -394,22 -324,0 -365,-2 -396,-18 z m 720,-217 v -85 h -325 -325 v 85 85 h 325 325 z"
       id="path16"
       style="fill:#0085ca;fill-opacity:1" />
    <path
       d="m 1633,535 c -29,-20 -37,-59 -19,-94 24,-46 67,-54 110,-20 72,57 -15,167 -91,114 z"
       id="path18"
       style="fill:#0085ca;fill-opacity:1" />
    <path
       d="m 1642,143 c -7,-3 -19,-18 -28,-35 -13,-25 -13,-35 -3,-59 21,-52 68,-63 113,-28 66,52 -2,154 -82,122 z"
       id="path20"
       style="fill:#0085ca;fill-opacity:1" />
  </g>
</svg>
