<?xml version="1.0" encoding="UTF-8" standalone="no"?>
<svg
   enable-background="new 0 0 48 48"
   height="512"
   id="Layer_1"
   version="1.1"
   viewBox="0 0 512 512"
   width="512"
   xml:space="preserve"
   sodipodi:docname="sofa.svg"
   inkscape:version="1.1.1 (3bf5ae0d25, 2021-09-20)"
   xmlns:inkscape="http://www.inkscape.org/namespaces/inkscape"
   xmlns:sodipodi="http://sodipodi.sourceforge.net/DTD/sodipodi-0.dtd"
   xmlns="http://www.w3.org/2000/svg"
   xmlns:svg="http://www.w3.org/2000/svg"><defs
     id="defs19" /><sodipodi:namedview
     id="namedview17"
     pagecolor="#ffffff"
     bordercolor="#666666"
     borderopacity="1.0"
     inkscape:pageshadow="2"
     inkscape:pageopacity="0.0"
     inkscape:pagecheckerboard="0"
     showgrid="false"
     inkscape:zoom="0.73841099"
     inkscape:cx="147.61427"
     inkscape:cy="148.2914"
     inkscape:window-width="1920"
     inkscape:window-height="991"
     inkscape:window-x="-9"
     inkscape:window-y="-9"
     inkscape:window-maximized="1"
     inkscape:current-layer="Layer_1" /><path
     d="m 458.03559,157.8443 c -2.57707,0 -5.06168,0.40447 -7.53474,0.76272 v -7.76587 c 0,-22.30375 -18.13191,-40.44722 -40.44722,-40.44722 H 102.44677 c -22.303748,0 -40.447213,18.14347 -40.447213,40.44722 v 7.53474 c -2.484615,-0.35825 -5.015455,-0.55471 -7.557852,-0.55471 -7.765865,0 -15.300604,1.68723 -22.373089,5.02702 C 13.809587,171.46923 1.999,190.08651 1.999,210.27544 v 98.50631 c 0,25.03105 20.385397,45.41645 45.416446,45.41645 H 81.992038 L 63.91791,390.17311 c -1.444543,2.84286 -0.288908,6.32132 2.553953,7.7543 0.832057,0.41603 1.71034,0.61249 2.600178,0.61249 2.126368,0 4.148729,-1.16719 5.165688,-3.16644 L 94.935147,354.1982 H 417.56526 l 20.72053,41.17526 c 1.01696,2.01081 3.05088,3.16644 5.14258,3.16644 0.87828,0 1.75656,-0.19646 2.60017,-0.61249 2.86598,-1.43298 3.9985,-4.91144 2.57707,-7.7543 L 430.51993,354.1982 h 34.57659 c 25.05416,0 45.41644,-20.3854 45.41644,-45.41645 V 210.287 c -0.0231,-28.91398 -23.54028,-52.4427 -52.47737,-52.4427 z M 73.555904,150.84115 c 0,-15.92465 12.954666,-28.89087 28.890866,-28.89087 h 307.60686 c 15.93621,0 28.89087,12.96622 28.89087,28.89087 v 10.72429 c -19.49556,7.67342 -33.37473,26.55649 -33.37473,48.72156 0,20.18894 11.79903,38.80621 30.08117,47.43881 0.99385,0.47381 1.65256,1.47921 1.65256,2.57706 v 6.67957 H 75.231575 v -6.67957 c 0,-1.10941 0.612486,-2.10325 1.629445,-2.57706 26.16357,-12.35374 37.39634,-43.67144 25.05416,-69.83501 C 96.137008,175.64107 85.794076,166.41911 73.567461,161.60011 Z M 498.9335,308.78175 c 0,18.6635 -15.18504,33.8601 -33.8601,33.8601 H 47.427002 c -18.663501,0 -33.860098,-15.1966 -33.860098,-33.8601 V 210.287 c 0,-15.7513 9.210409,-30.26607 23.447829,-36.98031 5.512378,-2.60018 11.371446,-3.9176 17.426972,-3.9176 15.751302,0 30.289187,9.19885 37.014982,23.44783 9.614883,20.39695 0.855169,44.81551 -19.518671,54.43039 -5.038568,2.36905 -8.262789,7.47696 -8.262789,13.024 v 12.45775 c 0,3.18955 2.577066,5.77817 5.778174,5.77817 H 443.07012 c 3.17799,0 5.77817,-2.58862 5.77817,-5.77817 v -12.45775 c 0,-5.53549 -3.24733,-10.65495 -8.26279,-13.024 -14.23742,-6.72579 -23.44783,-21.24057 -23.44783,-36.99187 0,-22.54643 18.35148,-40.89791 40.89792,-40.89791 22.54643,0 40.89791,18.33993 40.89791,40.89791 z"
     id="path2"
     style="stroke-width:30;fill:#0085ca;fill-opacity:1;stroke-miterlimit:4;stroke-dasharray:none" /><path
     d="m 256.2502,173.74583 c 10.01936,0 18.18969,-8.15878 18.18969,-18.17813 0,-10.01936 -8.17033,-18.20125 -18.18969,-18.20125 -10.01935,0 -18.18969,8.15878 -18.18969,18.18969 0,10.03091 8.17034,18.18969 18.18969,18.18969 z m 0,-24.82303 c 3.65181,0 6.63335,2.98153 6.63335,6.63334 0,3.65181 -2.98154,6.63334 -6.63335,6.63334 -3.6518,0 -6.63334,-2.96998 -6.63334,-6.62178 0,-3.65181 2.98154,-6.6449 6.63334,-6.6449 z"
     id="path4"
     style="stroke-width:30;fill:#0085ca;fill-opacity:1;stroke-miterlimit:4;stroke-dasharray:none" /><path
     d="m 256.2502,221.51977 c 10.01936,0 18.18969,-8.15878 18.18969,-18.18969 0,-10.01935 -8.17033,-18.17813 -18.18969,-18.17813 -10.01935,0 -18.18969,8.15878 -18.18969,18.17813 0,10.03091 8.17034,18.18969 18.18969,18.18969 z m 0,-24.81148 c 3.65181,0 6.63335,2.96998 6.63335,6.62179 0,3.66336 -2.98154,6.63334 -6.63335,6.63334 -3.6518,0 -6.63334,-2.96998 -6.63334,-6.63334 0,-3.65181 2.98154,-6.62179 6.63334,-6.62179 z"
     id="path6"
     style="stroke-width:30;fill:#0085ca;fill-opacity:1;stroke-miterlimit:4;stroke-dasharray:none" /><path
     d="m 345.38431,173.74583 c 10.04247,0 18.18969,-8.15878 18.18969,-18.17813 0,-10.01936 -8.14722,-18.18969 -18.18969,-18.18969 -10.01935,0 -18.16658,8.15878 -18.16658,18.18969 0,10.03091 8.14723,18.17813 18.16658,18.17813 z m 0,-24.82303 c 3.65181,0 6.63335,2.98153 6.63335,6.63334 0,3.65181 -2.98154,6.62179 -6.63335,6.62179 -3.6518,0 -6.61023,-2.96998 -6.61023,-6.62179 0,-3.64025 2.94687,-6.63334 6.61023,-6.63334 z"
     id="path8"
     style="stroke-width:30;fill:#0085ca;fill-opacity:1;stroke-miterlimit:4;stroke-dasharray:none" /><path
     d="m 345.38431,221.51977 c 10.04247,0 18.18969,-8.15878 18.18969,-18.18969 0,-10.01935 -8.14722,-18.17813 -18.18969,-18.17813 -10.01935,0 -18.16658,8.15878 -18.16658,18.17813 0,10.03091 8.14723,18.18969 18.16658,18.18969 z m 0,-24.81148 c 3.65181,0 6.63335,2.96998 6.63335,6.62179 0,3.66336 -2.98154,6.63334 -6.63335,6.63334 -3.6518,0 -6.61023,-2.96998 -6.61023,-6.63334 0,-3.65181 2.94687,-6.62179 6.61023,-6.62179 z"
     id="path10"
     style="stroke-width:30;fill:#0085ca;fill-opacity:1;stroke-miterlimit:4;stroke-dasharray:none" /><path
     d="m 167.11609,173.74583 c 10.01936,0 18.1897,-8.15878 18.1897,-18.17813 0,-10.01936 -8.17034,-18.18969 -18.1897,-18.18969 -10.01935,0 -18.18969,8.15878 -18.18969,18.18969 0,10.03091 8.17034,18.17813 18.18969,18.17813 z m 0,-24.82303 c 3.65181,0 6.63335,2.98153 6.63335,6.63334 0,3.65181 -2.98154,6.62179 -6.63335,6.62179 -3.6518,0 -6.63334,-2.96998 -6.63334,-6.62179 0,-3.64025 2.98154,-6.63334 6.63334,-6.63334 z"
     id="path12"
     style="stroke-width:30;fill:#0085ca;fill-opacity:1;stroke-miterlimit:4;stroke-dasharray:none" /><path
     d="m 167.11609,221.51977 c 10.01936,0 18.1897,-8.15878 18.1897,-18.18969 0,-10.01935 -8.17034,-18.17813 -18.1897,-18.17813 -10.01935,0 -18.18969,8.15878 -18.18969,18.17813 0,10.03091 8.17034,18.18969 18.18969,18.18969 z m 0,-24.81148 c 3.65181,0 6.63335,2.96998 6.63335,6.62179 0,3.66336 -2.98154,6.63334 -6.63335,6.63334 -3.6518,0 -6.63334,-2.96998 -6.63334,-6.63334 0,-3.65181 2.98154,-6.62179 6.63334,-6.62179 z"
     id="path14"
     style="stroke-width:30;fill:#0085ca;fill-opacity:1;stroke-miterlimit:4;stroke-dasharray:none" /></svg>
