<?xml version="1.0" encoding="UTF-8" standalone="no"?>
<svg
   data-name="Layer 1"
   id="Layer_1"
   viewBox="0 0 512 512"
   version="1.1"
   sodipodi:docname="stroller.svg"
   width="512"
   height="512"
   inkscape:version="1.1.1 (3bf5ae0d25, 2021-09-20)"
   xmlns:inkscape="http://www.inkscape.org/namespaces/inkscape"
   xmlns:sodipodi="http://sodipodi.sourceforge.net/DTD/sodipodi-0.dtd"
   xmlns="http://www.w3.org/2000/svg"
   xmlns:svg="http://www.w3.org/2000/svg">
  <defs
     id="defs9" />
  <sodipodi:namedview
     id="namedview7"
     pagecolor="#ffffff"
     bordercolor="#666666"
     borderopacity="1.0"
     inkscape:pageshadow="2"
     inkscape:pageopacity="0.0"
     inkscape:pagecheckerboard="0"
     showgrid="false"
     inkscape:zoom="0.50125"
     inkscape:cx="-65.835411"
     inkscape:cy="226.43391"
     inkscape:window-width="1920"
     inkscape:window-height="991"
     inkscape:window-x="-9"
     inkscape:window-y="-9"
     inkscape:window-maximized="1"
     inkscape:current-layer="Layer_1" />
  <title
     id="title2" />
  <path
     d="M 475.96355,229.84996 A 202.14227,202.14227 0 0 0 274.03049,34.925187 h -7.26981 V 229.84996 H 124.03203 V 204.58872 A 76.882054,76.882054 0 0 0 47.097671,127.96816 H 34.650099 a 29.497604,29.497604 0 1 0 26.150359,16.26553 62.133252,62.133252 0 0 1 48.535062,60.35503 v 32.63565 A 118.98413,118.98413 0 0 0 223.08958,355.947 l -38.07492,38.07491 a 62.76086,62.76086 0 1 0 10.46014,10.46015 l 48.37816,-48.37817 h 72.175 l 48.37816,48.37817 a 62.76086,62.76086 0 1 0 10.46015,-10.46015 l -38.02262,-37.91802 h 20.29267 A 119.03644,119.03644 0 0 0 475.96355,244.12806 c 0,0 0,-5.23007 0,-6.95599 0,-1.72593 0,-7.32211 0,-7.32211 z M 281.40488,49.778591 A 187.44577,187.44577 0 0 1 461.11015,229.48386 H 281.40488 Z M 34.7024,172.10997 a 14.696501,14.696501 0 0 1 0,-29.393 v 0 a 14.696501,14.696501 0 0 1 0,29.393 z m 159.41259,270.76081 a 47.959757,47.959757 0 1 1 -19.66507,-38.54562 l -24.37214,24.37213 a 14.539599,14.539599 0 0 0 -3.76565,-0.523 14.696501,14.696501 0 1 0 14.6965,14.69649 14.539599,14.539599 0 0 0 -0.52301,-3.76564 L 184.85776,414.733 a 47.489051,47.489051 0 0 1 9.25723,28.13778 z m 219.0877,-47.54135 a 47.959757,47.959757 0 1 1 -38.54563,19.66507 l 24.37214,24.37214 a 14.539599,14.539599 0 0 0 -0.52301,3.76565 14.696501,14.696501 0 1 0 14.6965,-14.7488 14.539599,14.539599 0 0 0 -3.76565,0.52301 L 385.0649,404.53436 a 47.489051,47.489051 0 0 1 28.13779,-9.20493 z M 357.08402,341.35509 H 228.16275 A 104.28763,104.28763 0 0 1 124.29353,244.59876 h 336.71202 a 104.28763,104.28763 0 0 1 -103.92153,96.75633 z"
     id="path4"
     style="fill:#0085ca;fill-opacity:1;stroke-width:5.23008" />
</svg>
