<?xml version="1.0" encoding="UTF-8" standalone="no"?>
<svg
   id="Icons_FamilyWithTwoChildren"
   overflow="hidden"
   version="1.1"
   viewBox="0 0 512 512"
   sodipodi:docname="family.svg"
   width="512"
   height="512"
   inkscape:version="1.1.1 (3bf5ae0d25, 2021-09-20)"
   xmlns:inkscape="http://www.inkscape.org/namespaces/inkscape"
   xmlns:sodipodi="http://sodipodi.sourceforge.net/DTD/sodipodi-0.dtd"
   xmlns="http://www.w3.org/2000/svg"
   xmlns:svg="http://www.w3.org/2000/svg">
  <defs
     id="defs54" />
  <sodipodi:namedview
     id="namedview52"
     pagecolor="#ffffff"
     bordercolor="#666666"
     borderopacity="1.0"
     inkscape:pageshadow="2"
     inkscape:pageopacity="0.0"
     inkscape:pagecheckerboard="0"
     showgrid="false"
     width="512px"
     inkscape:zoom="0.71171034"
     inkscape:cx="250.10175"
     inkscape:cy="149.63953"
     inkscape:window-width="1920"
     inkscape:window-height="991"
     inkscape:window-x="-9"
     inkscape:window-y="-9"
     inkscape:window-maximized="1"
     inkscape:current-layer="Icons_FamilyWithTwoChildren" />
  <g
     id="g49"
     transform="matrix(5.7601582,0,0,5.7601582,-19.139833,-29.480207)"
     style="fill:#0085ca;fill-opacity:1">
    <circle
       cx="59"
       cy="23"
       r="5"
       id="circle39"
       style="fill:#0085ca;fill-opacity:1" />
    <circle
       cx="81"
       cy="47"
       r="4"
       id="circle41"
       style="fill:#0085ca;fill-opacity:1" />
    <circle
       cx="37"
       cy="23"
       r="5"
       id="circle43"
       style="fill:#0085ca;fill-opacity:1" />
    <circle
       cx="15"
       cy="47"
       r="4"
       id="circle45"
       style="fill:#0085ca;fill-opacity:1" />
    <path
       d="M 91.8,64.2 88.3,55.9 C 87.1,54.2 85.2,52.9 83.1,52.3 82.5,52.1 81.7,52 81,52 c -1.4,0 -2.7,0.3 -3.9,0.9 L 71,48.6 67.4,33.6 C 67.3,33.2 67,32.7 66.7,32.5 65.5,31.6 64.1,30.9 62.6,30.5 61.4,30.2 60.2,30 59,30 c -1.2,0 -2.4,0.2 -3.5,0.5 -1.5,0.4 -2.9,1.1 -4.1,2 -0.4,0.3 -0.6,0.7 -0.7,1.1 L 48,44.4 45.4,33.6 C 45.3,33.2 45,32.7 44.7,32.5 43.5,31.6 42.1,30.9 40.6,30.5 39.4,30.2 38.2,30 37,30 c -1.2,0 -2.4,0.2 -3.5,0.5 -1.5,0.4 -2.9,1.1 -4.1,2 -0.4,0.3 -0.6,0.7 -0.7,1.1 l -3.6,15 -6.1,4.3 C 17.7,52.3 16.4,52 15,52 c -0.7,0 -1.5,0.1 -2.1,0.3 -2.1,0.5 -4,1.8 -5.2,3.6 L 4.2,64.2 C 3.8,65.1 4.1,66.1 4.8,66.7 5.2,66.9 5.6,67 6,67 6.8,67 7.5,66.5 7.8,65.8 L 10,60.6 V 66 78 h 4 V 66 h 2 v 12 h 4 V 57 h 0.1 L 28,51.5 c 0.4,-0.3 0.7,-0.7 0.8,-1.2 L 32,37 v 41 h 4 V 55 h 2 v 23 h 4 V 37 l 4.1,16.5 c 0.2,0.9 1,1.5 1.9,1.5 0.9,0 1.7,-0.6 1.9,-1.5 L 54,37 v 8.4 L 50.5,60 H 54 v 18 h 4 V 60 h 2 v 18 h 4 V 60 h 3.5 L 64,45.4 V 37 l 3.3,13.3 c 0.1,0.5 0.4,0.9 0.8,1.2 l 8,5.6 v 6.2 L 74,69 h 2 v 9 h 4 v -9 h 2 v 9 h 4 v -9 h 2 l -1.9,-5.3 v -3.1 l 2.2,5.2 c 0.3,0.8 1.1,1.2 1.8,1.2 0.4,0 0.8,-0.1 1.2,-0.4 0.6,-0.5 0.9,-1.6 0.5,-2.4 z"
       id="path47"
       style="fill:#0085ca;fill-opacity:1" />
  </g>
</svg>
