<?xml version="1.0" encoding="UTF-8" standalone="no"?>
<svg
   viewBox="0 0 512 512"
   version="1.1"
   id="svg7"
   sodipodi:docname="park.svg"
   width="512"
   height="512"
   inkscape:version="1.1.1 (3bf5ae0d25, 2021-09-20)"
   xmlns:inkscape="http://www.inkscape.org/namespaces/inkscape"
   xmlns:sodipodi="http://sodipodi.sourceforge.net/DTD/sodipodi-0.dtd"
   xmlns="http://www.w3.org/2000/svg"
   xmlns:svg="http://www.w3.org/2000/svg">
  <defs
     id="defs11" />
  <sodipodi:namedview
     id="namedview9"
     pagecolor="#ffffff"
     bordercolor="#666666"
     borderopacity="1.0"
     inkscape:pageshadow="2"
     inkscape:pageopacity="0.0"
     inkscape:pagecheckerboard="0"
     showgrid="false"
     inkscape:zoom="0.78320313"
     inkscape:cx="95.760598"
     inkscape:cy="421.98504"
     inkscape:window-width="1920"
     inkscape:window-height="991"
     inkscape:window-x="-9"
     inkscape:window-y="-9"
     inkscape:window-maximized="1"
     inkscape:current-layer="Layer_5" />
  <title
     id="title2" />
  <g
     data-name="Layer 5"
     id="Layer_5"
     transform="matrix(8.1224948,0,0,8.1224948,-0.58992281,-4.4211878)">
    <path
       d="m 62,57 a 1,1 0 0 0 1,-1 v -4 a 1,1 0 0 0 -1,-1 h -3 v -2 h 1 a 1,1 0 0 0 1,-1 v -8 a 1,1 0 0 0 -1,-1 h -9 v -8 h 3 a 1,1 0 0 0 0.71,-0.29 l 1,-1 A 3,3 0 1 0 54.3,28.3 l -0.71,0.71 H 51 V 25 h 1 a 1,1 0 0 0 1,-0.68 l 2,-6 a 1,1 0 0 0 -0.14,-0.9 v 0 0 l -4,-5 a 1,1 0 0 0 -1.56,0 l -4,5 v 0 0 a 1,1 0 0 0 -0.14,0.9 l 2,6 A 1,1 0 0 0 48,25 h 1 v 4 H 46.41 L 45.7,28.29 a 3,3 0 1 0 -1.41,1.41 l 1,1 A 1,1 0 0 0 46,31 h 3 v 8 H 38.12 A 17.61,17.61 0 0 0 40,31 C 40,22.18 33.72,15 26,15 a 13,13 0 0 0 -9.4,4.17 L 13,1.8 a 1,1 0 0 0 -2,0 L 1,49.8 A 1,1 0 0 0 1.2,50.63 1,1 0 0 0 2,51 h 9 V 61 H 1 v 2 H 63 V 61 H 61 V 57 Z M 57,26 a 1,1 0 1 1 -1,1 1,1 0 0 1 1,-1 z M 50,14.6 51.92,17 H 48.08 Z M 47.39,19 h 5.22 l -1.33,4 H 48.72 Z M 42,27 a 1,1 0 1 1 1,1 1,1 0 0 1 -1,-1 z M 61,55 H 31 V 53 H 61 Z M 27,47 a 12.71,12.71 0 0 0 4,-1 v 2 a 1,1 0 0 0 1,1 h 1 v 2 h -3 a 1,1 0 0 0 -1,1 v 4 a 1,1 0 0 0 1,1 h 1 v 4 h -4 z m 24,4 v -2 h 2 v 2 z m -2,0 H 39 v -2 h 10 z m -12,0 h -2 v -2 h 2 z m -4,6 h 2 v 4 h -2 z m 4,0 h 12 v 4 H 37 Z m 14,0 h 4 v 4 h -4 z m 6,-6 h -2 v -2 h 2 z m 2,-4 H 33 V 41 H 59 Z M 26,17 c 6.62,0 12,6.28 12,14 a 15.4,15.4 0 0 1 -2.17,8 H 32 a 1,1 0 0 0 -1,1 v 3.71 a 10.73,10.73 0 0 1 -4,1.22 v -9.52 l 3.71,-3.7 -1.42,-1.42 -2.29,2.3 V 29 h -2 v 8.59 l -1.29,-1.3 -1.42,1.42 2.71,2.7 v 4.53 A 10.53,10.53 0 0 1 21.79,44.09 L 17.11,21.63 A 11.28,11.28 0 0 1 26,17 Z M 3.23,49 12,6.9 20.77,49 H 13 V 37.41 l 2.71,-2.7 -1.42,-1.42 -1.29,1.3 V 30 H 11 V 40.59 L 8.71,38.29 7.29,39.71 11,43.41 V 49 Z M 13,51 h 9 a 1,1 0 0 0 0.78,-0.37 1,1 0 0 0 0.2,-0.83 L 22.27,46.41 A 12.1,12.1 0 0 0 25,46.94 V 61 H 13 Z m 46,10 h -2 v -4 h 2 z"
       id="path4"
       style="fill:#0085ca;fill-opacity:1" />
  </g>
</svg>
