<?xml version="1.0" encoding="UTF-8" standalone="no"?>
<svg
   version="1.0"
   width="512"
   height="512"
   viewBox="0 0 383.99999 383.99999"
   preserveAspectRatio="xMidYMid meet"
   id="svg22"
   sodipodi:docname="safe.svg"
   inkscape:version="1.1.1 (3bf5ae0d25, 2021-09-20)"
   xmlns:inkscape="http://www.inkscape.org/namespaces/inkscape"
   xmlns:sodipodi="http://sodipodi.sourceforge.net/DTD/sodipodi-0.dtd"
   xmlns="http://www.w3.org/2000/svg"
   xmlns:svg="http://www.w3.org/2000/svg">
  <defs
     id="defs26" />
  <sodipodi:namedview
     id="namedview24"
     pagecolor="#ffffff"
     bordercolor="#666666"
     borderopacity="1.0"
     inkscape:pageshadow="2"
     inkscape:pageopacity="0.0"
     inkscape:pagecheckerboard="0"
     inkscape:document-units="pt"
     showgrid="false"
     units="px"
     inkscape:zoom="0.83071236"
     inkscape:cx="197.42092"
     inkscape:cy="356.92258"
     inkscape:window-width="1920"
     inkscape:window-height="991"
     inkscape:window-x="-9"
     inkscape:window-y="-9"
     inkscape:window-maximized="1"
     inkscape:current-layer="svg22" />
  <g
     transform="matrix(0.07580616,0,0,-0.07580616,-0.84559253,387.41962)"
     fill="#000000"
     stroke="none"
     id="g20"
     style="fill:#0085ca;fill-opacity:1">
    <path
       d="m 1026,5030 c -104,-27 -213,-113 -259,-206 -20,-41 -20,-41 -56,-32 -105,30 -277,-27 -360,-118 -87,-93 -128,-235 -102,-354 11,-50 10,-55 -13,-89 -55,-80 -70,-130 -71,-232 0,-89 2,-100 36,-167 l 35,-72 -39,-37 c -21,-21 -55,-72 -75,-112 -35,-71 -37,-81 -37,-170 0,-87 3,-102 32,-163 37,-79 96,-146 157,-178 l 43,-24 6,-69 c 7,-85 48,-177 107,-241 54,-59 161,-113 240,-122 37,-4 60,-11 60,-19 0,-7 16,-44 35,-82 43,-86 103,-144 193,-186 61,-29 76,-32 163,-32 89,0 100,2 167,36 l 72,35 v -558 c 0,-307 -2,-558 -4,-558 -2,0 -30,12 -62,26 -305,135 -673,2 -822,-296 -41,-82 -71,-191 -72,-256 0,-30 -3,-32 -47,-39 C 250,700 157,631 110,535 90,494 86,469 86,400 c 0,-73 4,-92 26,-136 39,-75 70,-107 140,-145 l 63,-34 1003,-3 1002,-2 v 320 320 h 280 280 V 522 c 0,-247 8,-282 85,-358 63,-63 136,-90 220,-81 52,5 123,35 158,65 15,14 19,14 35,0 77,-69 215,-85 307,-36 59,31 94,66 126,128 23,43 24,57 27,263 l 3,217 h 280 279 V 400 80 h 320 320 v 800 800 h -79 -79 l -4,167 c -3,164 -4,169 -35,235 -44,93 -100,151 -191,196 l -76,37 -382,3 -383,3 -65,43 c -35,24 -70,46 -78,48 -9,3 4,23 38,60 179,190 177,470 -3,659 -187,197 -499,197 -686,0 -180,-189 -182,-469 -3,-659 29,-32 46,-57 39,-59 -7,-2 -40,-23 -75,-46 l -63,-42 -385,-5 -385,-5 -67,-32 c -93,-44 -151,-100 -196,-191 l -37,-76 -4,-168 -3,-168 h -79 -79 v -242 -243 l -63,-21 c -34,-11 -70,-24 -79,-28 -17,-8 -18,26 -18,621 v 629 l 72,-35 c 67,-34 78,-36 167,-36 87,0 102,3 163,32 90,42 150,100 193,186 19,38 35,75 35,82 0,8 23,15 60,19 79,9 186,63 240,122 59,64 100,156 107,241 l 6,69 44,24 c 59,31 119,100 157,180 28,59 31,74 31,160 0,86 -3,101 -31,160 -17,36 -51,87 -75,114 l -44,48 35,71 c 33,66 35,77 35,166 -1,102 -16,152 -71,232 -23,34 -24,39 -13,89 18,83 5,173 -36,256 -42,86 -102,144 -193,187 -56,26 -78,31 -147,31 -44,1 -96,-2 -115,-7 -33,-7 -37,-5 -54,28 -27,50 -123,138 -184,169 -154,78 -344,70 -477,-20 l -36,-24 -29,20 c -65,46 -139,72 -218,76 -42,2 -94,-1 -116,-6 z m 165,-161 c 50,-17 94,-53 141,-115 l 41,-55 66,64 c 93,92 135,111 241,111 78,1 90,-2 148,-33 70,-38 100,-70 140,-145 22,-43 26,-64 26,-136 1,-78 -2,-90 -33,-148 -19,-35 -48,-74 -64,-88 -45,-38 -117,-71 -170,-79 l -47,-7 v -79 -79 h 28 c 15,0 54,7 85,15 216,56 367,250 367,471 0,56 2,62 23,68 78,21 157,-4 223,-69 82,-82 95,-175 39,-286 l -26,-51 47,-41 c 81,-71 110,-165 82,-261 -23,-78 -135,-166 -212,-166 -13,0 -16,-13 -16,-80 v -80 h 28 c 15,0 58,11 97,24 79,27 87,26 138,-34 84,-98 71,-241 -29,-329 l -38,-34 -21,29 c -66,95 -179,166 -282,180 l -53,7 v -82 c 0,-68 3,-81 16,-81 108,0 224,-125 224,-240 0,-124 -116,-240 -240,-240 -115,0 -240,116 -240,224 0,13 -13,16 -81,16 h -82 l 7,-52 c 9,-65 52,-162 95,-211 18,-20 55,-51 83,-69 45,-29 49,-35 44,-62 -7,-36 -46,-87 -89,-119 -62,-46 -133,-58 -211,-35 -55,16 -138,99 -154,154 -8,28 -12,129 -12,311 v 271 l 333,147 c 182,81 334,149 335,151 4,3 -48,125 -58,137 -4,5 -58,-14 -120,-42 -63,-28 -117,-51 -121,-51 -4,0 -35,83 -69,185 -34,102 -67,185 -73,185 -26,0 -137,-44 -137,-55 0,-6 27,-91 60,-190 33,-99 60,-184 60,-190 0,-9 -184,-95 -202,-95 -5,0 -8,187 -8,415 v 415 h -80 -80 v -295 -295 l -92,46 -93,46 -113,190 c -110,183 -114,189 -135,175 -12,-7 -43,-26 -69,-41 l -47,-27 104,-172 104,-172 -135,-135 c -73,-74 -134,-140 -134,-145 0,-13 92,-105 104,-105 6,0 72,61 147,136 l 136,136 111,-56 112,-56 v -391 c 0,-278 -4,-404 -12,-433 -26,-86 -136,-166 -228,-166 -124,0 -240,116 -240,240 0,115 116,240 224,240 13,0 16,13 16,81 v 82 l -52,-7 c -71,-9 -167,-55 -222,-106 -43,-40 -116,-164 -116,-196 0,-17 -30,-18 -84,-2 -55,16 -138,99 -154,154 -16,54 -15,84 4,156 8,33 14,61 12,63 -2,2 -32,10 -67,19 -189,48 -263,247 -144,386 51,60 59,61 138,34 39,-13 93,-23 120,-24 50,0 121,13 132,24 3,3 -5,36 -19,73 l -25,68 -52,-4 c -84,-5 -139,15 -196,73 -71,71 -91,146 -63,240 23,78 135,166 212,166 13,0 16,13 16,80 0,76 -1,80 -22,80 -24,0 -75,-11 -115,-24 -21,-7 -23,-4 -23,25 0,123 116,239 240,239 115,0 240,-116 240,-224 0,-13 13,-16 81,-16 h 82 l -7,53 c -9,68 -53,160 -104,218 -40,45 -40,45 -25,78 20,41 93,105 135,118 45,15 108,15 149,2 z M 3511,3079 c 67,-36 98,-68 137,-143 22,-43 26,-64 26,-136 1,-78 -2,-90 -33,-148 -38,-70 -70,-100 -145,-140 -43,-22 -64,-26 -136,-26 -72,0 -93,4 -136,26 -75,40 -107,70 -145,140 -31,58 -34,70 -33,148 0,100 24,160 89,225 100,100 249,121 376,54 z m -45,-770 c 95,-17 210,-78 282,-149 70,-70 104,-122 141,-219 23,-62 25,-79 29,-298 l 4,-232 -26,-26 c -24,-24 -29,-25 -163,-25 h -138 v 80 80 h 83 82 v 160 160 h -80 -80 v -80 -80 h -240 -240 v 80 80 h -80 -80 v -160 -160 h 215 c 216,0 216,0 240,-25 16,-15 25,-36 25,-55 0,-19 -9,-40 -25,-55 l -24,-25 h -271 -271 l -24,25 c -25,24 -25,25 -25,223 0,109 5,225 11,258 23,127 104,255 210,336 131,100 284,136 445,107 z m -747,-226 c -64,-128 -72,-169 -77,-432 -5,-281 -1,-304 72,-376 28,-28 67,-56 86,-62 28,-9 -19,-11 -222,-12 l -258,-1 v 240 240 h -160 -160 v 136 c 0,78 5,154 12,178 15,51 99,137 148,153 22,7 142,11 316,12 l 282,1 z m 1835,65 c 55,-16 138,-99 154,-154 7,-24 12,-100 12,-178 v -136 h -160 -160 v -240 -240 l -257,1 c -204,1 -251,3 -223,12 19,6 58,34 86,62 73,72 77,95 72,376 -5,262 -12,301 -77,432 l -38,77 h 275 c 186,0 288,-4 316,-12 z M 2160,1361 v -158 l -91,-5 c -77,-5 -101,-11 -160,-40 l -69,-34 v 198 198 h 160 160 z m 2720,-39 v -198 l -69,34 c -59,29 -83,35 -160,40 l -91,5 v 158 159 h 160 160 z M 1153,1185 c 78,-20 150,-58 202,-106 l 43,-40 -33,-49 c -42,-63 -73,-144 -81,-215 l -7,-55 h 80 80 l 6,45 c 15,109 92,205 200,250 l 37,15 V 635 240 l -669,2 c -658,3 -670,3 -697,24 -53,39 -69,71 -69,134 0,63 16,95 69,134 23,18 45,22 137,24 l 109,4 v 107 c 0,172 38,278 137,382 117,123 296,176 456,134 z m 2091,-24 31,-31 V 720 310 l -33,-32 c -28,-28 -39,-33 -82,-33 -43,0 -54,5 -82,33 l -33,32 v 409 409 l 25,27 c 33,36 57,46 104,41 27,-3 49,-14 70,-35 z m 400,0 31,-31 V 720 310 l -33,-32 c -28,-28 -39,-33 -82,-33 -43,0 -54,5 -82,33 l -33,32 v 409 409 l 25,27 c 33,36 57,46 104,41 27,-3 49,-14 70,-35 z M 2880,960 v -80 h -510 c -456,0 -510,2 -510,16 0,24 101,119 140,131 23,7 180,11 458,12 l 422,1 z m 1834,68 c 45,-13 146,-105 146,-132 0,-14 -54,-16 -510,-16 h -510 v 80 80 h 416 c 298,0 428,-3 458,-12 z M 2160,480 V 240 h -160 -160 v 240 240 h 160 160 z m 2720,0 V 240 h -160 -160 v 240 240 h 160 160 z"
       id="path2"
       style="fill:#0085ca;fill-opacity:1" />
    <path
       d="m 880,960 v -80 h 80 80 v 80 80 h -80 -80 z"
       id="path4"
       style="fill:#0085ca;fill-opacity:1" />
    <path
       d="m 720,480 v -80 h 80 80 v 80 80 h -80 -80 z"
       id="path6"
       style="fill:#0085ca;fill-opacity:1" />
    <path
       d="m 1200,480 v -80 h 80 80 v 80 80 h -80 -80 z"
       id="path8"
       style="fill:#0085ca;fill-opacity:1" />
    <path
       d="m 4080,4787 c -49,-16 -133,-102 -148,-153 -22,-74 -22,-74 68,-74 65,0 80,3 80,15 0,27 47,65 80,65 51,0 80,-38 80,-105 v -55 h -40 -40 v -80 -80 h 160 160 v 80 80 h -40 -40 v 55 c 0,67 29,105 80,105 33,0 80,-38 80,-65 0,-12 15,-15 80,-15 90,0 90,0 68,74 -8,26 -31,60 -63,91 -87,87 -201,100 -297,33 -28,-19 -28,-19 -55,0 -60,41 -140,52 -213,29 z"
       id="path10"
       style="fill:#0085ca;fill-opacity:1" />
    <path
       d="m 3040,4307 c -49,-16 -133,-102 -148,-153 -22,-74 -22,-74 68,-74 65,0 80,3 80,15 0,27 47,65 80,65 51,0 80,-38 80,-105 v -55 h -40 -40 v -80 -80 h 160 160 v 80 80 h -40 -40 v 55 c 0,67 29,105 80,105 33,0 80,-38 80,-65 0,-12 15,-15 80,-15 90,0 90,0 68,74 -8,26 -31,60 -63,91 -87,87 -201,100 -297,33 -28,-19 -28,-19 -55,0 -60,41 -140,52 -213,29 z"
       id="path12"
       style="fill:#0085ca;fill-opacity:1" />
    <path
       d="m 4400,3907 c -49,-16 -133,-102 -148,-153 -22,-74 -22,-74 68,-74 65,0 80,3 80,15 0,27 47,65 80,65 51,0 80,-38 80,-105 v -55 h -40 -40 v -80 -80 h 160 160 v 80 80 h -40 -40 v 55 c 0,67 29,105 80,105 33,0 80,-38 80,-65 0,-12 15,-15 80,-15 90,0 90,0 68,74 -8,26 -31,60 -63,91 -87,87 -201,100 -297,33 -28,-19 -28,-19 -55,0 -60,41 -140,52 -213,29 z"
       id="path14"
       style="fill:#0085ca;fill-opacity:1" />
    <path
       d="M 386,2389 C 324,2374 233,2321 189,2273 123,2201 88,2115 82,2008 l -5,-90 170,3 169,4 76,37 c 140,70 216,187 226,349 l 5,89 -149,-1 c -82,-1 -166,-5 -188,-10 z m 154,-165 c 0,-8 -24,-39 -52,-67 -58,-57 -104,-77 -182,-77 -62,0 -60,17 7,84 57,57 95,73 175,75 41,1 52,-2 52,-15 z"
       id="path16"
       style="fill:#0085ca;fill-opacity:1" />
    <path
       d="M 866,1989 C 804,1974 713,1921 669,1873 603,1801 568,1715 562,1608 l -5,-90 170,3 169,4 76,37 c 140,70 216,187 226,349 l 5,89 -149,-1 c -82,-1 -166,-5 -188,-10 z m 154,-165 c 0,-8 -24,-39 -52,-67 -58,-57 -104,-77 -182,-77 -62,0 -60,17 7,84 57,57 95,73 175,75 41,1 52,-2 52,-15 z"
       id="path18"
       style="fill:#0085ca;fill-opacity:1" />
  </g>
</svg>
