<?xml version="1.0" encoding="UTF-8" standalone="no"?>
<svg
   height="512"
   version="1.1"
   viewBox="0 0 512 512"
   width="512"
   id="svg1018"
   sodipodi:docname="sport.svg"
   inkscape:version="1.1.1 (3bf5ae0d25, 2021-09-20)"
   xmlns:inkscape="http://www.inkscape.org/namespaces/inkscape"
   xmlns:sodipodi="http://sodipodi.sourceforge.net/DTD/sodipodi-0.dtd"
   xmlns="http://www.w3.org/2000/svg"
   xmlns:svg="http://www.w3.org/2000/svg">
  <sodipodi:namedview
     id="namedview1020"
     pagecolor="#ffffff"
     bordercolor="#666666"
     borderopacity="1.0"
     inkscape:pageshadow="2"
     inkscape:pageopacity="0.0"
     inkscape:pagecheckerboard="0"
     showgrid="false"
     width="512px"
     inkscape:zoom="0.59072879"
     inkscape:cx="458.75536"
     inkscape:cy="253.07722"
     inkscape:window-width="1920"
     inkscape:window-height="991"
     inkscape:window-x="-9"
     inkscape:window-y="-9"
     inkscape:window-maximized="1"
     inkscape:current-layer="svg1018" />
  <title
     id="title1009" />
  <desc
     id="desc1011" />
  <defs
     id="defs1013" />
  <g
     fill="none"
     fill-rule="evenodd"
     id="People"
     stroke="none"
     stroke-width="1"
     transform="matrix(8.4766403,0,0,8.4766403,3.3856484,1.6928242)"
     style="fill:#0085ca;fill-opacity:1">
    <g
       fill="#000000"
       id="Icon-43"
       style="fill:#0085ca;fill-opacity:1">
      <path
         d="m 55,34 c 0.553,0 1,-0.447 1,-1 0,-0.553 -0.447,-1 -1,-1 h -2 c -0.553,0 -1,0.447 -1,1 v 10 c 0,0.553 0.447,1 1,1 h 2 c 0.553,0 1,-0.447 1,-1 0,-0.553 -0.447,-1 -1,-1 h -1 v -8 z m 0,-8 H 45 c -0.553,0 -1,0.447 -1,1 v 22 c 0,0.553 0.447,1 1,1 h 10 c 0.553,0 1,-0.447 1,-1 0,-0.553 -0.447,-1 -1,-1 H 46 V 28 h 9 c 0.553,0 1,-0.447 1,-1 0,-0.553 -0.447,-1 -1,-1 z M 5,42 c -0.552,0 -1,0.447 -1,1 0,0.553 0.448,1 1,1 h 2 c 0.552,0 1,-0.447 1,-1 V 33 C 8,32.447 7.552,32 7,32 H 5 c -0.552,0 -1,0.447 -1,1 0,0.553 0.448,1 1,1 h 1 v 8 z m 0,8 h 10 c 0.552,0 1,-0.447 1,-1 V 27 c 0,-0.553 -0.448,-1 -1,-1 H 5 c -0.552,0 -1,0.447 -1,1 0,0.553 0.448,1 1,1 h 9 V 48 H 5 c -0.552,0 -1,0.447 -1,1 0,0.553 0.448,1 1,1 z M 20.853,7.976 24.129,9.04 29,5.491 V 2.051 C 25.35,2.415 22.276,4.752 20.853,7.976 Z M 31,2.051 V 5.49 l 4.884,3.545 3.263,-1.059 C 37.724,4.752 34.65,2.415 31,2.051 Z M 40,12 c 0,-0.729 -0.083,-1.438 -0.232,-2.123 l -3.269,1.061 -1.88,5.894 2.011,2.634 C 38.691,17.633 40,14.969 40,12 Z M 30,22 c 1.826,0 3.535,-0.5 5.01,-1.359 L 32.993,18 h -6.015 l -1.993,2.638 C 26.461,21.498 28.171,22 30,22 Z M 25.468,10.54 27.201,16 h 5.584 l 1.746,-5.475 -4.53,-3.289 z m -2.101,8.923 1.996,-2.642 -1.867,-5.883 -3.264,-1.061 C 20.083,10.563 20,11.271 20,12 c 0,2.968 1.307,5.63 3.367,7.463 z M 18,12 C 18,10.713 18.209,9.476 18.585,8.313 18.587,8.306 18.586,8.299 18.588,8.292 18.591,8.282 18.599,8.275 18.603,8.266 20.177,3.474 24.688,0 30,0 c 5.314,0 9.827,3.476 11.399,8.271 0.003,0.008 0.009,0.013 0.012,0.021 0.002,0.005 0,0.011 0.002,0.017 C 41.791,9.473 42,10.712 42,12 c 0,3.949 -1.926,7.448 -4.879,9.636 -0.018,0.017 -0.028,0.041 -0.049,0.056 -0.027,0.021 -0.059,0.03 -0.089,0.047 C 35.014,23.156 32.606,24 30,24 27.396,24 24.992,23.158 23.023,21.744 22.993,21.726 22.96,21.718 22.932,21.696 22.91,21.68 22.899,21.654 22.879,21.637 19.926,19.448 18,15.949 18,12 Z m 11,29.858 v -7.716 c -1.72,0.447 -3,2 -3,3.858 0,1.858 1.28,3.411 3,3.858 z m 2,-7.716 v 7.716 c 1.721,-0.447 3,-2 3,-3.858 0,-1.858 -1.279,-3.411 -3,-3.858 z M 29,55 V 43.91 C 26.167,43.432 24,40.967 24,38 c 0,-2.967 2.167,-5.432 5,-5.91 V 27 c 0,-0.553 0.448,-1 1,-1 0.552,0 1,0.447 1,1 v 5.09 c 2.833,0.478 5,2.943 5,5.91 0,2.967 -2.167,5.432 -5,5.91 V 55 c 0,0.553 -0.448,1 -1,1 -0.552,0 -1,-0.447 -1,-1 z M 60,21 v 34 c 0,2.757 -2.243,5 -5,5 H 5 C 2.243,60 0,57.757 0,55 V 21 c 0,-2.757 2.243,-5 5,-5 h 11 c 0.552,0 1,0.447 1,1 0,0.553 -0.448,1 -1,1 H 5 c -1.654,0 -3,1.346 -3,3 v 34 c 0,1.654 1.346,3 3,3 h 50 c 1.654,0 3,-1.346 3,-3 V 21 c 0,-1.654 -1.346,-3 -3,-3 H 44 c -0.553,0 -1,-0.447 -1,-1 0,-0.553 0.447,-1 1,-1 h 11 c 2.757,0 5,2.243 5,5 z"
         id="field-football"
         style="fill:#0085ca;fill-opacity:1" />
    </g>
  </g>
</svg>
